<svg width="125" height="15" viewBox="0 0 125 15" fill="none" xmlns="http://www.w3.org/2000/svg">
<path d="M1.904 14.9761C1.296 14.0054 0.826662 12.8854 0.495996 11.6161C0.165329 10.3361 -4.17233e-06 8.96007 -4.17233e-06 7.48807C-4.17233e-06 6.01607 0.165329 4.64007 0.495996 3.36007C0.826662 2.0694 1.296 0.949403 1.904 6.96182e-05H3.36C2.72 1.13074 2.25066 2.31474 1.952 3.55207C1.65333 4.77874 1.504 6.09074 1.504 7.48807C1.504 8.8854 1.65333 10.2027 1.952 11.4401C2.25066 12.6667 2.72 13.8454 3.36 14.9761H1.904ZM8.27062 0.54407C9.28395 0.54407 10.1373 0.762737 10.8306 1.20007C11.5346 1.6374 12.068 2.27207 12.4306 3.10407C12.7933 3.9254 12.9746 4.9334 12.9746 6.12807C12.9746 7.3974 12.7506 8.4694 12.3026 9.34407C11.8546 10.2187 11.236 10.8801 10.4466 11.3281C9.65729 11.7761 8.73462 12.0001 7.67862 12.0001C7.15595 12.0001 6.64929 11.9467 6.15862 11.8401C5.67862 11.7334 5.25729 11.5681 4.89462 11.3441L5.50262 10.0961C5.80129 10.2881 6.13195 10.4267 6.49462 10.5121C6.86795 10.5867 7.25729 10.6241 7.66262 10.6241C8.79329 10.6241 9.69462 10.2721 10.3666 9.56807C11.0386 8.8534 11.3746 7.7974 11.3746 6.40007C11.3746 6.17607 11.364 5.9094 11.3426 5.60007C11.3213 5.29074 11.2733 4.98674 11.1986 4.68807L11.7266 5.23207C11.5773 5.72274 11.3266 6.13874 10.9746 6.48007C10.6333 6.81074 10.2173 7.0614 9.72662 7.23207C9.24662 7.39207 8.71862 7.47207 8.14262 7.47207C7.40662 7.47207 6.75062 7.3334 6.17462 7.05607C5.59862 6.77874 5.14529 6.3894 4.81462 5.88807C4.48395 5.37607 4.31862 4.7734 4.31862 4.08007C4.31862 3.35474 4.48929 2.73074 4.83062 2.20807C5.18262 1.67474 5.65729 1.26407 6.25462 0.976069C6.86262 0.68807 7.53462 0.54407 8.27062 0.54407ZM8.33462 1.84007C7.85462 1.84007 7.42795 1.93074 7.05462 2.11207C6.68129 2.2934 6.38795 2.54407 6.17462 2.86407C5.97195 3.18407 5.87062 3.56807 5.87062 4.01607C5.87062 4.6774 6.09995 5.2054 6.55862 5.60007C7.01729 5.98407 7.63595 6.17607 8.41462 6.17607C8.92662 6.17607 9.37462 6.08007 9.75862 5.88807C10.1533 5.69607 10.4573 5.43474 10.6706 5.10407C10.8946 4.7734 11.0066 4.4054 11.0066 4.00007C11.0066 3.6054 10.9053 3.24807 10.7026 2.92807C10.5 2.60807 10.2013 2.34674 9.80662 2.14407C9.41195 1.9414 8.92129 1.84007 8.33462 1.84007ZM19.0896 12.0001C18.215 12.0001 17.431 11.7761 16.7376 11.3281C16.055 10.8801 15.511 10.2294 15.1056 9.37607C14.711 8.52274 14.5136 7.48807 14.5136 6.27207C14.5136 5.05607 14.711 4.0214 15.1056 3.16807C15.511 2.31474 16.055 1.66407 16.7376 1.21607C17.431 0.76807 18.215 0.54407 19.0896 0.54407C19.9536 0.54407 20.7323 0.76807 21.4256 1.21607C22.119 1.66407 22.663 2.31474 23.0576 3.16807C23.4523 4.0214 23.6496 5.05607 23.6496 6.27207C23.6496 7.48807 23.4523 8.52274 23.0576 9.37607C22.663 10.2294 22.119 10.8801 21.4256 11.3281C20.7323 11.7761 19.9536 12.0001 19.0896 12.0001ZM19.0896 10.5761C19.6763 10.5761 20.1883 10.4161 20.6256 10.0961C21.0736 9.77607 21.4203 9.29607 21.6656 8.65607C21.9216 8.01607 22.0496 7.2214 22.0496 6.27207C22.0496 5.32274 21.9216 4.52807 21.6656 3.88807C21.4203 3.24807 21.0736 2.76807 20.6256 2.44807C20.1883 2.12807 19.6763 1.96807 19.0896 1.96807C18.503 1.96807 17.9856 2.12807 17.5376 2.44807C17.0896 2.76807 16.7376 3.24807 16.4816 3.88807C16.2363 4.52807 16.1136 5.32274 16.1136 6.27207C16.1136 7.2214 16.2363 8.01607 16.4816 8.65607C16.7376 9.29607 17.0896 9.77607 17.5376 10.0961C17.9856 10.4161 18.503 10.5761 19.0896 10.5761ZM28.8175 0.54407C29.8308 0.54407 30.6842 0.762737 31.3775 1.20007C32.0815 1.6374 32.6148 2.27207 32.9775 3.10407C33.3402 3.9254 33.5215 4.9334 33.5215 6.12807C33.5215 7.3974 33.2975 8.4694 32.8495 9.34407C32.4015 10.2187 31.7828 10.8801 30.9935 11.3281C30.2042 11.7761 29.2815 12.0001 28.2255 12.0001C27.7028 12.0001 27.1962 11.9467 26.7055 11.8401C26.2255 11.7334 25.8042 11.5681 25.4415 11.3441L26.0495 10.0961C26.3482 10.2881 26.6788 10.4267 27.0415 10.5121C27.4148 10.5867 27.8042 10.6241 28.2095 10.6241C29.3402 10.6241 30.2415 10.2721 30.9135 9.56807C31.5855 8.8534 31.9215 7.7974 31.9215 6.40007C31.9215 6.17607 31.9108 5.9094 31.8895 5.60007C31.8682 5.29074 31.8202 4.98674 31.7455 4.68807L32.2735 5.23207C32.1242 5.72274 31.8735 6.13874 31.5215 6.48007C31.1802 6.81074 30.7642 7.0614 30.2735 7.23207C29.7935 7.39207 29.2655 7.47207 28.6895 7.47207C27.9535 7.47207 27.2975 7.3334 26.7215 7.05607C26.1455 6.77874 25.6922 6.3894 25.3615 5.88807C25.0308 5.37607 24.8655 4.7734 24.8655 4.08007C24.8655 3.35474 25.0362 2.73074 25.3775 2.20807C25.7295 1.67474 26.2042 1.26407 26.8015 0.976069C27.4095 0.68807 28.0815 0.54407 28.8175 0.54407ZM28.8815 1.84007C28.4015 1.84007 27.9748 1.93074 27.6015 2.11207C27.2282 2.2934 26.9348 2.54407 26.7215 2.86407C26.5188 3.18407 26.4175 3.56807 26.4175 4.01607C26.4175 4.6774 26.6468 5.2054 27.1055 5.60007C27.5642 5.98407 28.1828 6.17607 28.9615 6.17607C29.4735 6.17607 29.9215 6.08007 30.3055 5.88807C30.7002 5.69607 31.0042 5.43474 31.2175 5.10407C31.4415 4.7734 31.5535 4.4054 31.5535 4.00007C31.5535 3.6054 31.4522 3.24807 31.2495 2.92807C31.0468 2.60807 30.7482 2.34674 30.3535 2.14407C29.9588 1.9414 29.4682 1.84007 28.8815 1.84007ZM36.2605 14.9761H34.8045C35.4552 13.8454 35.9298 12.6667 36.2285 11.4401C36.5272 10.2027 36.6765 8.8854 36.6765 7.48807C36.6765 6.09074 36.5272 4.77874 36.2285 3.55207C35.9298 2.31474 35.4552 1.13074 34.8045 6.96182e-05H36.2605C36.8898 0.949403 37.3645 2.0694 37.6845 3.36007C38.0152 4.64007 38.1805 6.01607 38.1805 7.48807C38.1805 8.96007 38.0152 10.3361 37.6845 11.6161C37.3645 12.8854 36.8898 14.0054 36.2605 14.9761ZM44.5876 11.8721V10.7841L49.1476 6.38407C49.553 6.00007 49.8516 5.66407 50.0436 5.37607C50.2463 5.0774 50.3796 4.8054 50.4436 4.56007C50.5183 4.30407 50.5556 4.05874 50.5556 3.82407C50.5556 3.24807 50.353 2.79474 49.9476 2.46407C49.5423 2.1334 48.9503 1.96807 48.1716 1.96807C47.5743 1.96807 47.0356 2.0694 46.5556 2.27207C46.0756 2.46407 45.6596 2.76807 45.3076 3.18407L44.2196 2.24007C44.6463 1.69607 45.217 1.28007 45.9316 0.99207C46.657 0.693404 47.4516 0.54407 48.3156 0.54407C49.0943 0.54407 49.7716 0.67207 50.3476 0.92807C50.9236 1.1734 51.3663 1.53074 51.6756 2.00007C51.9956 2.4694 52.1556 3.02407 52.1556 3.66407C52.1556 4.02674 52.1076 4.38407 52.0116 4.73607C51.9156 5.08807 51.7343 5.4614 51.4676 5.85607C51.201 6.25074 50.817 6.6934 50.3156 7.18407L46.2516 11.1041L45.8676 10.4801H52.6356V11.8721H44.5876ZM58.5115 12.0001C57.6368 12.0001 56.8528 11.7761 56.1595 11.3281C55.4768 10.8801 54.9328 10.2294 54.5275 9.37607C54.1328 8.52274 53.9355 7.48807 53.9355 6.27207C53.9355 5.05607 54.1328 4.0214 54.5275 3.16807C54.9328 2.31474 55.4768 1.66407 56.1595 1.21607C56.8528 0.76807 57.6368 0.54407 58.5115 0.54407C59.3755 0.54407 60.1542 0.76807 60.8475 1.21607C61.5408 1.66407 62.0848 2.31474 62.4795 3.16807C62.8742 4.0214 63.0715 5.05607 63.0715 6.27207C63.0715 7.48807 62.8742 8.52274 62.4795 9.37607C62.0848 10.2294 61.5408 10.8801 60.8475 11.3281C60.1542 11.7761 59.3755 12.0001 58.5115 12.0001ZM58.5115 10.5761C59.0982 10.5761 59.6102 10.4161 60.0475 10.0961C60.4955 9.77607 60.8422 9.29607 61.0875 8.65607C61.3435 8.01607 61.4715 7.2214 61.4715 6.27207C61.4715 5.32274 61.3435 4.52807 61.0875 3.88807C60.8422 3.24807 60.4955 2.76807 60.0475 2.44807C59.6102 2.12807 59.0982 1.96807 58.5115 1.96807C57.9248 1.96807 57.4075 2.12807 56.9595 2.44807C56.5115 2.76807 56.1595 3.24807 55.9035 3.88807C55.6582 4.52807 55.5355 5.32274 55.5355 6.27207C55.5355 7.2214 55.6582 8.01607 55.9035 8.65607C56.1595 9.29607 56.5115 9.77607 56.9595 10.0961C57.4075 10.4161 57.9248 10.5761 58.5115 10.5761ZM64.4474 9.12007V8.00007L70.1754 0.67207H71.9034L66.2234 8.00007L65.4074 7.74407H74.3514V9.12007H64.4474ZM70.6714 11.8721V9.12007L70.7194 7.74407V5.31207H72.2234V11.8721H70.6714ZM79.7514 8.14407V6.81607H84.0554V8.14407H79.7514ZM94.3972 12.0001C93.4906 12.0001 92.7066 11.8667 92.0452 11.6001C91.3839 11.3334 90.8719 10.9547 90.5092 10.4641C90.1466 9.96274 89.9652 9.37607 89.9652 8.70407C89.9652 8.04274 90.1359 7.48274 90.4772 7.02407C90.8292 6.55474 91.3359 6.20274 91.9972 5.96807C92.6586 5.72274 93.4586 5.60007 94.3972 5.60007C95.3359 5.60007 96.1359 5.72274 96.7972 5.96807C97.4692 6.20274 97.9812 6.55474 98.3332 7.02407C98.6852 7.4934 98.8612 8.0534 98.8612 8.70407C98.8612 9.37607 98.6799 9.96274 98.3172 10.4641C97.9546 10.9547 97.4372 11.3334 96.7652 11.6001C96.0932 11.8667 95.3039 12.0001 94.3972 12.0001ZM94.3972 10.7041C95.2932 10.7041 95.9919 10.5227 96.4932 10.1601C97.0052 9.78674 97.2612 9.2854 97.2612 8.65607C97.2612 8.0374 97.0052 7.55207 96.4932 7.20007C95.9919 6.8374 95.2932 6.65607 94.3972 6.65607C93.5119 6.65607 92.8186 6.8374 92.3172 7.20007C91.8159 7.55207 91.5652 8.0374 91.5652 8.65607C91.5652 9.2854 91.8159 9.78674 92.3172 10.1601C92.8186 10.5227 93.5119 10.7041 94.3972 10.7041ZM94.3972 6.46407C93.5439 6.46407 92.8186 6.35207 92.2212 6.12807C91.6239 5.8934 91.1652 5.56274 90.8452 5.13607C90.5252 4.69874 90.3652 4.1814 90.3652 3.58407C90.3652 2.95474 90.5306 2.41607 90.8612 1.96807C91.2026 1.5094 91.6772 1.1574 92.2852 0.912069C92.8932 0.666737 93.5972 0.54407 94.3972 0.54407C95.2079 0.54407 95.9172 0.666737 96.5252 0.912069C97.1332 1.1574 97.6079 1.5094 97.9492 1.96807C98.2906 2.41607 98.4612 2.95474 98.4612 3.58407C98.4612 4.1814 98.3012 4.69874 97.9812 5.13607C97.6612 5.56274 97.1972 5.8934 96.5892 6.12807C95.9812 6.35207 95.2506 6.46407 94.3972 6.46407ZM94.3972 5.44007C95.1759 5.44007 95.7839 5.28007 96.2212 4.96007C96.6692 4.64007 96.8932 4.20274 96.8932 3.64807C96.8932 3.08274 96.6639 2.64007 96.2052 2.32007C95.7466 2.00007 95.1439 1.84007 94.3972 1.84007C93.6506 1.84007 93.0532 2.00007 92.6052 2.32007C92.1679 2.64007 91.9492 3.08274 91.9492 3.64807C91.9492 4.20274 92.1626 4.64007 92.5892 4.96007C93.0266 5.28007 93.6292 5.44007 94.3972 5.44007ZM100.15 11.8721V10.7841L104.71 6.38407C105.115 6.00007 105.414 5.66407 105.606 5.37607C105.809 5.0774 105.942 4.8054 106.006 4.56007C106.081 4.30407 106.118 4.05874 106.118 3.82407C106.118 3.24807 105.915 2.79474 105.51 2.46407C105.105 2.1334 104.513 1.96807 103.734 1.96807C103.137 1.96807 102.598 2.0694 102.118 2.27207C101.638 2.46407 101.222 2.76807 100.87 3.18407L99.7821 2.24007C100.209 1.69607 100.779 1.28007 101.494 0.99207C102.219 0.693404 103.014 0.54407 103.878 0.54407C104.657 0.54407 105.334 0.67207 105.91 0.92807C106.486 1.1734 106.929 1.53074 107.238 2.00007C107.558 2.4694 107.718 3.02407 107.718 3.66407C107.718 4.02674 107.67 4.38407 107.574 4.73607C107.478 5.08807 107.297 5.4614 107.03 5.85607C106.763 6.25074 106.379 6.6934 105.878 7.18407L101.814 11.1041L101.43 10.4801H108.198V11.8721H100.15ZM111.402 11.8721V1.31207L112.09 2.06407H108.874V0.67207H112.986V11.8721H111.402ZM119.803 12.0001C118.897 12.0001 118.113 11.8667 117.451 11.6001C116.79 11.3334 116.278 10.9547 115.915 10.4641C115.553 9.96274 115.371 9.37607 115.371 8.70407C115.371 8.04274 115.542 7.48274 115.883 7.02407C116.235 6.55474 116.742 6.20274 117.403 5.96807C118.065 5.72274 118.865 5.60007 119.803 5.60007C120.742 5.60007 121.542 5.72274 122.203 5.96807C122.875 6.20274 123.387 6.55474 123.739 7.02407C124.091 7.4934 124.267 8.0534 124.267 8.70407C124.267 9.37607 124.086 9.96274 123.723 10.4641C123.361 10.9547 122.843 11.3334 122.171 11.6001C121.499 11.8667 120.71 12.0001 119.803 12.0001ZM119.803 10.7041C120.699 10.7041 121.398 10.5227 121.899 10.1601C122.411 9.78674 122.667 9.2854 122.667 8.65607C122.667 8.0374 122.411 7.55207 121.899 7.20007C121.398 6.8374 120.699 6.65607 119.803 6.65607C118.918 6.65607 118.225 6.8374 117.723 7.20007C117.222 7.55207 116.971 8.0374 116.971 8.65607C116.971 9.2854 117.222 9.78674 117.723 10.1601C118.225 10.5227 118.918 10.7041 119.803 10.7041ZM119.803 6.46407C118.95 6.46407 118.225 6.35207 117.627 6.12807C117.03 5.8934 116.571 5.56274 116.251 5.13607C115.931 4.69874 115.771 4.1814 115.771 3.58407C115.771 2.95474 115.937 2.41607 116.267 1.96807C116.609 1.5094 117.083 1.1574 117.691 0.912069C118.299 0.666737 119.003 0.54407 119.803 0.54407C120.614 0.54407 121.323 0.666737 121.931 0.912069C122.539 1.1574 123.014 1.5094 123.355 1.96807C123.697 2.41607 123.867 2.95474 123.867 3.58407C123.867 4.1814 123.707 4.69874 123.387 5.13607C123.067 5.56274 122.603 5.8934 121.995 6.12807C121.387 6.35207 120.657 6.46407 119.803 6.46407ZM119.803 5.44007C120.582 5.44007 121.19 5.28007 121.627 4.96007C122.075 4.64007 122.299 4.20274 122.299 3.64807C122.299 3.08274 122.07 2.64007 121.611 2.32007C121.153 2.00007 120.55 1.84007 119.803 1.84007C119.057 1.84007 118.459 2.00007 118.011 2.32007C117.574 2.64007 117.355 3.08274 117.355 3.64807C117.355 4.20274 117.569 4.64007 117.995 4.96007C118.433 5.28007 119.035 5.44007 119.803 5.44007Z" fill="#212121"/>
</svg>
