<svg width="409" height="15" viewBox="0 0 409 15" fill="none" xmlns="http://www.w3.org/2000/svg">
<path d="M2.52799 12.1121V1.55206L3.21599 2.30406H-5.97537e-06V0.91206H4.11199V12.1121H2.52799ZM14.3467 12.1121L10.6027 0.91206H12.2507L15.6907 11.2481H14.8587L18.4267 0.91206H19.8987L23.3867 11.2481H22.5867L26.0747 0.91206H27.5947L23.8507 12.1121H22.1707L18.9067 2.52806H19.3387L16.0587 12.1121H14.3467ZM32.4634 12.2081C31.5567 12.2081 30.7567 12.0214 30.0634 11.6481C29.3807 11.2747 28.8474 10.7627 28.4634 10.1121C28.09 9.46139 27.9034 8.71473 27.9034 7.87206C27.9034 7.02939 28.0847 6.28273 28.4474 5.63206C28.8207 4.98139 29.3274 4.47473 29.9674 4.11206C30.618 3.73873 31.3487 3.55206 32.1594 3.55206C32.9807 3.55206 33.706 3.73339 34.3354 4.09606C34.9647 4.45873 35.4554 4.97073 35.8074 5.63206C36.17 6.28273 36.3514 7.04539 36.3514 7.92006C36.3514 7.98406 36.346 8.05873 36.3354 8.14406C36.3354 8.22939 36.33 8.30939 36.3194 8.38406H29.1034V7.28006H35.5194L34.8954 7.66406C34.906 7.12006 34.794 6.63473 34.5594 6.20806C34.3247 5.78139 33.9994 5.45073 33.5834 5.21606C33.178 4.97073 32.7034 4.84806 32.1594 4.84806C31.626 4.84806 31.1514 4.97073 30.7354 5.21606C30.3194 5.45073 29.994 5.78673 29.7594 6.22406C29.5247 6.65073 29.4074 7.14139 29.4074 7.69606V7.95206C29.4074 8.51739 29.5354 9.02406 29.7914 9.47206C30.058 9.90939 30.426 10.2507 30.8954 10.4961C31.3647 10.7414 31.9034 10.8641 32.5114 10.8641C33.0127 10.8641 33.466 10.7787 33.8714 10.6081C34.2874 10.4374 34.65 10.1814 34.9594 9.84006L35.8074 10.8321C35.4234 11.2801 34.9434 11.6214 34.3674 11.8561C33.802 12.0907 33.1674 12.2081 32.4634 12.2081ZM40.9162 12.2081C40.2122 12.2081 39.5402 12.1121 38.9002 11.9201C38.2709 11.7281 37.7749 11.4934 37.4122 11.2161L38.0522 10.0001C38.4149 10.2454 38.8629 10.4534 39.3962 10.6241C39.9296 10.7947 40.4736 10.8801 41.0282 10.8801C41.7429 10.8801 42.2549 10.7787 42.5642 10.5761C42.8842 10.3734 43.0442 10.0907 43.0442 9.72806C43.0442 9.46139 42.9482 9.25339 42.7562 9.10406C42.5642 8.95473 42.3082 8.84273 41.9882 8.76806C41.6789 8.69339 41.3322 8.62939 40.9482 8.57606C40.5642 8.51206 40.1802 8.43739 39.7962 8.35206C39.4122 8.25606 39.0602 8.12806 38.7402 7.96806C38.4202 7.79739 38.1642 7.56806 37.9722 7.28006C37.7802 6.98139 37.6842 6.58673 37.6842 6.09606C37.6842 5.58406 37.8282 5.13606 38.1162 4.75206C38.4042 4.36806 38.8096 4.07473 39.3322 3.87206C39.8656 3.65873 40.4949 3.55206 41.2202 3.55206C41.7749 3.55206 42.3349 3.62139 42.9002 3.76006C43.4762 3.88806 43.9456 4.07473 44.3082 4.32006L43.6522 5.53606C43.2682 5.28006 42.8682 5.10406 42.4522 5.00806C42.0362 4.91206 41.6202 4.86406 41.2042 4.86406C40.5322 4.86406 40.0309 4.97606 39.7002 5.20006C39.3696 5.41339 39.2042 5.69073 39.2042 6.03206C39.2042 6.32006 39.3002 6.54406 39.4922 6.70406C39.6949 6.85339 39.9509 6.97073 40.2602 7.05606C40.5802 7.14139 40.9322 7.21606 41.3162 7.28006C41.7002 7.33339 42.0842 7.40806 42.4682 7.50406C42.8522 7.58939 43.1989 7.71206 43.5082 7.87206C43.8282 8.03206 44.0842 8.25606 44.2762 8.54406C44.4789 8.83206 44.5802 9.21606 44.5802 9.69606C44.5802 10.2081 44.4309 10.6507 44.1322 11.0241C43.8336 11.3974 43.4122 11.6907 42.8682 11.9041C42.3242 12.1067 41.6736 12.2081 40.9162 12.2081ZM49.4119 12.2081C48.5585 12.2081 47.8972 11.9787 47.4279 11.5201C46.9585 11.0614 46.7239 10.4054 46.7239 9.55206V1.77606H48.2599V9.48806C48.2599 9.94673 48.3719 10.2987 48.5959 10.5441C48.8305 10.7894 49.1612 10.9121 49.5879 10.9121C50.0679 10.9121 50.4679 10.7787 50.7879 10.5121L51.2679 11.6161C51.0332 11.8187 50.7505 11.9681 50.4199 12.0641C50.0999 12.1601 49.7639 12.2081 49.4119 12.2081ZM45.2839 4.89606V3.63206H50.6919V4.89606H45.2839ZM57.6457 12.1121V0.91206H58.9577L63.9817 9.37606H63.2777L68.2377 0.91206H69.5497L69.5657 12.1121H68.0297L68.0137 3.32806H68.3817L63.9657 10.7521H63.2297L58.7817 3.32806H59.1817V12.1121H57.6457ZM76.335 12.2081C75.4817 12.2081 74.7243 12.0214 74.063 11.6481C73.4017 11.2747 72.879 10.7627 72.495 10.1121C72.111 9.45073 71.919 8.70406 71.919 7.87206C71.919 7.02939 72.111 6.28273 72.495 5.63206C72.879 4.98139 73.4017 4.47473 74.063 4.11206C74.7243 3.73873 75.4817 3.55206 76.335 3.55206C77.1777 3.55206 77.9297 3.73873 78.591 4.11206C79.263 4.47473 79.7857 4.98139 80.159 5.63206C80.543 6.27206 80.735 7.01873 80.735 7.87206C80.735 8.71473 80.543 9.46139 80.159 10.1121C79.7857 10.7627 79.263 11.2747 78.591 11.6481C77.9297 12.0214 77.1777 12.2081 76.335 12.2081ZM76.335 10.8641C76.879 10.8641 77.3643 10.7414 77.791 10.4961C78.2283 10.2507 78.5697 9.90406 78.815 9.45606C79.0603 8.99739 79.183 8.46939 79.183 7.87206C79.183 7.26406 79.0603 6.74139 78.815 6.30406C78.5697 5.85606 78.2283 5.50939 77.791 5.26406C77.3643 5.01873 76.879 4.89606 76.335 4.89606C75.791 4.89606 75.3057 5.01873 74.879 5.26406C74.4523 5.50939 74.111 5.85606 73.855 6.30406C73.599 6.74139 73.471 7.26406 73.471 7.87206C73.471 8.46939 73.599 8.99739 73.855 9.45606C74.111 9.90406 74.4523 10.2507 74.879 10.4961C75.3057 10.7414 75.791 10.8641 76.335 10.8641ZM86.4272 12.2081C85.7019 12.2081 85.0619 12.0747 84.5072 11.8081C83.9632 11.5414 83.5366 11.1361 83.2272 10.5921C82.9286 10.0374 82.7792 9.34406 82.7792 8.51206V3.63206H84.3152V8.33606C84.3152 9.16806 84.5126 9.79206 84.9072 10.2081C85.3126 10.6241 85.8779 10.8321 86.6032 10.8321C87.1366 10.8321 87.6006 10.7254 87.9952 10.5121C88.3899 10.2881 88.6939 9.96806 88.9072 9.55206C89.1206 9.12539 89.2272 8.61339 89.2272 8.01606V3.63206H90.7632V12.1121H89.3072V9.82406L89.5472 10.4321C89.2699 10.9974 88.8539 11.4347 88.2992 11.7441C87.7446 12.0534 87.1206 12.2081 86.4272 12.2081ZM98.2154 3.55206C98.9087 3.55206 99.5167 3.68539 100.039 3.95206C100.573 4.21873 100.989 4.62406 101.287 5.16806C101.586 5.71206 101.735 6.40006 101.735 7.23206V12.1121H100.199V7.40806C100.199 6.58673 99.9967 5.96806 99.5914 5.55206C99.1967 5.13606 98.6367 4.92806 97.9114 4.92806C97.3674 4.92806 96.8927 5.03473 96.4874 5.24806C96.082 5.46139 95.7674 5.77606 95.5434 6.19206C95.33 6.60806 95.2234 7.12539 95.2234 7.74406V12.1121H93.6874V3.63206H95.1594V5.92006L94.9194 5.31206C95.1967 4.75739 95.6234 4.32539 96.1994 4.01606C96.7754 3.70673 97.4474 3.55206 98.2154 3.55206ZM107.49 12.2081C106.637 12.2081 105.975 11.9787 105.506 11.5201C105.037 11.0614 104.802 10.4054 104.802 9.55206V1.77606H106.338V9.48806C106.338 9.94673 106.45 10.2987 106.674 10.5441C106.909 10.7894 107.239 10.9121 107.666 10.9121C108.146 10.9121 108.546 10.7787 108.866 10.5121L109.346 11.6161C109.111 11.8187 108.829 11.9681 108.498 12.0641C108.178 12.1601 107.842 12.2081 107.49 12.2081ZM103.362 4.89606V3.63206H108.77V4.89606H103.362ZM116.467 12.1121V10.3201L116.387 9.98406V6.92806C116.387 6.27739 116.195 5.77606 115.811 5.42406C115.438 5.06139 114.872 4.88006 114.115 4.88006C113.614 4.88006 113.123 4.96539 112.643 5.13606C112.163 5.29606 111.758 5.51473 111.427 5.79206L110.787 4.64006C111.224 4.28806 111.747 4.02139 112.355 3.84006C112.974 3.64806 113.619 3.55206 114.291 3.55206C115.454 3.55206 116.35 3.83473 116.979 4.40006C117.608 4.96539 117.923 5.82939 117.923 6.99206V12.1121H116.467ZM113.683 12.2081C113.054 12.2081 112.499 12.1014 112.019 11.8881C111.55 11.6747 111.187 11.3814 110.931 11.0081C110.675 10.6241 110.547 10.1921 110.547 9.71206C110.547 9.25339 110.654 8.83739 110.867 8.46406C111.091 8.09073 111.448 7.79206 111.939 7.56806C112.44 7.34406 113.112 7.23206 113.955 7.23206H116.643V8.33606H114.019C113.251 8.33606 112.734 8.46406 112.467 8.72006C112.2 8.97606 112.067 9.28539 112.067 9.64806C112.067 10.0641 112.232 10.4001 112.563 10.6561C112.894 10.9014 113.352 11.0241 113.939 11.0241C114.515 11.0241 115.016 10.8961 115.443 10.6401C115.88 10.3841 116.195 10.0107 116.387 9.52006L116.691 10.5761C116.488 11.0774 116.131 11.4774 115.619 11.7761C115.107 12.0641 114.462 12.2081 113.683 12.2081ZM120.765 12.1121V3.63206H122.301V12.1121H120.765ZM121.533 2.00006C121.235 2.00006 120.984 1.90406 120.781 1.71206C120.589 1.52006 120.493 1.28539 120.493 1.00806C120.493 0.72006 120.589 0.48006 120.781 0.28806C120.984 0.0960601 121.235 6.00815e-05 121.533 6.00815e-05C121.832 6.00815e-05 122.077 0.0960601 122.269 0.28806C122.472 0.469393 122.573 0.698726 122.573 0.97606C122.573 1.26406 122.477 1.50939 122.285 1.71206C122.093 1.90406 121.843 2.00006 121.533 2.00006ZM129.762 3.55206C130.456 3.55206 131.064 3.68539 131.586 3.95206C132.12 4.21873 132.536 4.62406 132.834 5.16806C133.133 5.71206 133.282 6.40006 133.282 7.23206V12.1121H131.746V7.40806C131.746 6.58673 131.544 5.96806 131.138 5.55206C130.744 5.13606 130.184 4.92806 129.458 4.92806C128.914 4.92806 128.44 5.03473 128.034 5.24806C127.629 5.46139 127.314 5.77606 127.09 6.19206C126.877 6.60806 126.77 7.12539 126.77 7.74406V12.1121H125.234V3.63206H126.706V5.92006L126.466 5.31206C126.744 4.75739 127.17 4.32539 127.746 4.01606C128.322 3.70673 128.994 3.55206 129.762 3.55206ZM143.91 12.2401C143.056 12.2401 142.24 12.1121 141.462 11.8561C140.683 11.5894 140.07 11.2481 139.622 10.8321L140.214 9.58406C140.64 9.95739 141.184 10.2667 141.846 10.5121C142.507 10.7574 143.195 10.8801 143.91 10.8801C144.56 10.8801 145.088 10.8054 145.494 10.6561C145.899 10.5067 146.198 10.3041 146.39 10.0481C146.582 9.78139 146.678 9.48273 146.678 9.15206C146.678 8.76806 146.55 8.45873 146.294 8.22406C146.048 7.98939 145.723 7.80273 145.318 7.66406C144.923 7.51473 144.486 7.38673 144.006 7.28006C143.526 7.17339 143.04 7.05073 142.55 6.91206C142.07 6.76273 141.627 6.57606 141.222 6.35206C140.827 6.12806 140.507 5.82939 140.262 5.45606C140.016 5.07206 139.894 4.58139 139.894 3.98406C139.894 3.40806 140.043 2.88006 140.342 2.40006C140.651 1.90939 141.12 1.52006 141.75 1.23206C142.39 0.933394 143.2 0.78406 144.182 0.78406C144.832 0.78406 145.478 0.869394 146.118 1.04006C146.758 1.21073 147.312 1.45606 147.782 1.77606L147.254 3.05606C146.774 2.73606 146.267 2.50673 145.734 2.36806C145.2 2.21873 144.683 2.14406 144.182 2.14406C143.552 2.14406 143.035 2.22406 142.63 2.38406C142.224 2.54406 141.926 2.75739 141.734 3.02406C141.552 3.29073 141.462 3.58939 141.462 3.92006C141.462 4.31473 141.584 4.62939 141.83 4.86406C142.086 5.09873 142.411 5.28539 142.806 5.42406C143.211 5.56273 143.654 5.69073 144.134 5.80806C144.614 5.91473 145.094 6.03739 145.574 6.17606C146.064 6.31473 146.507 6.49606 146.902 6.72006C147.307 6.94406 147.632 7.24273 147.878 7.61606C148.123 7.98939 148.246 8.46939 148.246 9.05606C148.246 9.62139 148.091 10.1494 147.782 10.6401C147.472 11.1201 146.992 11.5094 146.342 11.8081C145.702 12.0961 144.891 12.2401 143.91 12.2401ZM153.271 12.2081C152.418 12.2081 151.757 11.9787 151.287 11.5201C150.818 11.0614 150.583 10.4054 150.583 9.55206V1.77606H152.119V9.48806C152.119 9.94673 152.231 10.2987 152.455 10.5441C152.69 10.7894 153.021 10.9121 153.447 10.9121C153.927 10.9121 154.327 10.7787 154.647 10.5121L155.127 11.6161C154.893 11.8187 154.61 11.9681 154.279 12.0641C153.959 12.1601 153.623 12.2081 153.271 12.2081ZM149.143 4.89606V3.63206H154.551V4.89606H149.143ZM156.984 12.1121V3.63206H158.456V5.93606L158.312 5.36006C158.547 4.77339 158.942 4.32539 159.496 4.01606C160.051 3.70673 160.734 3.55206 161.544 3.55206V5.04006C161.48 5.02939 161.416 5.02406 161.352 5.02406C161.299 5.02406 161.246 5.02406 161.192 5.02406C160.371 5.02406 159.72 5.26939 159.24 5.76006C158.76 6.25073 158.52 6.96006 158.52 7.88806V12.1121H156.984ZM167.135 12.2081C166.229 12.2081 165.429 12.0214 164.735 11.6481C164.053 11.2747 163.519 10.7627 163.135 10.1121C162.762 9.46139 162.575 8.71473 162.575 7.87206C162.575 7.02939 162.757 6.28273 163.119 5.63206C163.493 4.98139 163.999 4.47473 164.639 4.11206C165.29 3.73873 166.021 3.55206 166.831 3.55206C167.653 3.55206 168.378 3.73339 169.007 4.09606C169.637 4.45873 170.127 4.97073 170.479 5.63206C170.842 6.28273 171.023 7.04539 171.023 7.92006C171.023 7.98406 171.018 8.05873 171.007 8.14406C171.007 8.22939 171.002 8.30939 170.991 8.38406H163.775V7.28006H170.191L169.567 7.66406C169.578 7.12006 169.466 6.63473 169.231 6.20806C168.997 5.78139 168.671 5.45073 168.255 5.21606C167.85 4.97073 167.375 4.84806 166.831 4.84806C166.298 4.84806 165.823 4.97073 165.407 5.21606C164.991 5.45073 164.666 5.78673 164.431 6.22406C164.197 6.65073 164.079 7.14139 164.079 7.69606V7.95206C164.079 8.51739 164.207 9.02406 164.463 9.47206C164.73 9.90939 165.098 10.2507 165.567 10.4961C166.037 10.7414 166.575 10.8641 167.183 10.8641C167.685 10.8641 168.138 10.7787 168.543 10.6081C168.959 10.4374 169.322 10.1814 169.631 9.84006L170.479 10.8321C170.095 11.2801 169.615 11.6214 169.039 11.8561C168.474 12.0907 167.839 12.2081 167.135 12.2081ZM176.932 12.2081C176.025 12.2081 175.225 12.0214 174.532 11.6481C173.849 11.2747 173.316 10.7627 172.932 10.1121C172.559 9.46139 172.372 8.71473 172.372 7.87206C172.372 7.02939 172.553 6.28273 172.916 5.63206C173.289 4.98139 173.796 4.47473 174.436 4.11206C175.087 3.73873 175.817 3.55206 176.628 3.55206C177.449 3.55206 178.175 3.73339 178.804 4.09606C179.433 4.45873 179.924 4.97073 180.276 5.63206C180.639 6.28273 180.82 7.04539 180.82 7.92006C180.82 7.98406 180.815 8.05873 180.804 8.14406C180.804 8.22939 180.799 8.30939 180.788 8.38406H173.572V7.28006H179.988L179.364 7.66406C179.375 7.12006 179.263 6.63473 179.028 6.20806C178.793 5.78139 178.468 5.45073 178.052 5.21606C177.647 4.97073 177.172 4.84806 176.628 4.84806C176.095 4.84806 175.62 4.97073 175.204 5.21606C174.788 5.45073 174.463 5.78673 174.228 6.22406C173.993 6.65073 173.876 7.14139 173.876 7.69606V7.95206C173.876 8.51739 174.004 9.02406 174.26 9.47206C174.527 9.90939 174.895 10.2507 175.364 10.4961C175.833 10.7414 176.372 10.8641 176.98 10.8641C177.481 10.8641 177.935 10.7787 178.34 10.6081C178.756 10.4374 179.119 10.1814 179.428 9.84006L180.276 10.8321C179.892 11.2801 179.412 11.6214 178.836 11.8561C178.271 12.0907 177.636 12.2081 176.932 12.2081ZM185.865 12.2081C185.012 12.2081 184.35 11.9787 183.881 11.5201C183.412 11.0614 183.177 10.4054 183.177 9.55206V1.77606H184.713V9.48806C184.713 9.94673 184.825 10.2987 185.049 10.5441C185.284 10.7894 185.614 10.9121 186.041 10.9121C186.521 10.9121 186.921 10.7787 187.241 10.5121L187.721 11.6161C187.486 11.8187 187.204 11.9681 186.873 12.0641C186.553 12.1601 186.217 12.2081 185.865 12.2081ZM181.737 4.89606V3.63206H187.145V4.89606H181.737ZM189.126 14.4801L189.926 11.2481L190.134 12.1761C189.825 12.1761 189.564 12.0801 189.35 11.8881C189.148 11.6961 189.046 11.4347 189.046 11.1041C189.046 10.7841 189.148 10.5227 189.35 10.3201C189.564 10.1174 189.82 10.0161 190.118 10.0161C190.428 10.0161 190.678 10.1227 190.87 10.3361C191.062 10.5387 191.158 10.7947 191.158 11.1041C191.158 11.2107 191.148 11.3174 191.126 11.4241C191.116 11.5201 191.089 11.6374 191.046 11.7761C191.014 11.9041 190.961 12.0641 190.886 12.2561L190.134 14.4801H189.126ZM202.52 12.2401C201.048 12.2401 199.891 11.8187 199.048 10.9761C198.205 10.1334 197.784 8.90139 197.784 7.28006V0.91206H199.384V7.21606C199.384 8.46406 199.656 9.37606 200.2 9.95206C200.755 10.5281 201.533 10.8161 202.536 10.8161C203.549 10.8161 204.328 10.5281 204.872 9.95206C205.427 9.37606 205.704 8.46406 205.704 7.21606V0.91206H207.256V7.28006C207.256 8.90139 206.835 10.1334 205.992 10.9761C205.16 11.8187 204.003 12.2401 202.52 12.2401ZM214.84 3.55206C215.534 3.55206 216.142 3.68539 216.664 3.95206C217.198 4.21873 217.614 4.62406 217.912 5.16806C218.211 5.71206 218.36 6.40006 218.36 7.23206V12.1121H216.824V7.40806C216.824 6.58673 216.622 5.96806 216.216 5.55206C215.822 5.13606 215.262 4.92806 214.536 4.92806C213.992 4.92806 213.518 5.03473 213.112 5.24806C212.707 5.46139 212.392 5.77606 212.168 6.19206C211.955 6.60806 211.848 7.12539 211.848 7.74406V12.1121H210.312V3.63206H211.784V5.92006L211.544 5.31206C211.822 4.75739 212.248 4.32539 212.824 4.01606C213.4 3.70673 214.072 3.55206 214.84 3.55206ZM221.203 12.1121V3.63206H222.739V12.1121H221.203ZM221.971 2.00006C221.672 2.00006 221.422 1.90406 221.219 1.71206C221.027 1.52006 220.931 1.28539 220.931 1.00806C220.931 0.72006 221.027 0.48006 221.219 0.28806C221.422 0.0960601 221.672 6.00815e-05 221.971 6.00815e-05C222.27 6.00815e-05 222.515 0.0960601 222.707 0.28806C222.91 0.469393 223.011 0.698726 223.011 0.97606C223.011 1.26406 222.915 1.50939 222.723 1.71206C222.531 1.90406 222.28 2.00006 221.971 2.00006ZM228.584 12.2081C227.73 12.2081 227.069 11.9787 226.6 11.5201C226.13 11.0614 225.896 10.4054 225.896 9.55206V1.77606H227.432V9.48806C227.432 9.94673 227.544 10.2987 227.768 10.5441C228.002 10.7894 228.333 10.9121 228.76 10.9121C229.24 10.9121 229.64 10.7787 229.96 10.5121L230.44 11.6161C230.205 11.8187 229.922 11.9681 229.592 12.0641C229.272 12.1601 228.936 12.2081 228.584 12.2081ZM224.456 4.89606V3.63206H229.864V4.89606H224.456ZM239.538 0.78406C240.551 0.78406 241.404 1.00273 242.098 1.44006C242.802 1.87739 243.335 2.51206 243.698 3.34406C244.06 4.16539 244.242 5.17339 244.242 6.36806C244.242 7.63739 244.018 8.70939 243.57 9.58406C243.122 10.4587 242.503 11.1201 241.714 11.5681C240.924 12.0161 240.002 12.2401 238.946 12.2401C238.423 12.2401 237.916 12.1867 237.426 12.0801C236.946 11.9734 236.524 11.8081 236.162 11.5841L236.77 10.3361C237.068 10.5281 237.399 10.6667 237.762 10.7521C238.135 10.8267 238.524 10.8641 238.93 10.8641C240.06 10.8641 240.962 10.5121 241.634 9.80806C242.306 9.09339 242.642 8.03739 242.642 6.64006C242.642 6.41606 242.631 6.14939 242.61 5.84006C242.588 5.53073 242.54 5.22673 242.466 4.92806L242.994 5.47206C242.844 5.96273 242.594 6.37873 242.242 6.72006C241.9 7.05073 241.484 7.30139 240.994 7.47206C240.514 7.63206 239.986 7.71206 239.41 7.71206C238.674 7.71206 238.018 7.57339 237.442 7.29606C236.866 7.01873 236.412 6.62939 236.082 6.12806C235.751 5.61606 235.586 5.01339 235.586 4.32006C235.586 3.59473 235.756 2.97073 236.098 2.44806C236.45 1.91473 236.924 1.50406 237.522 1.21606C238.13 0.92806 238.802 0.78406 239.538 0.78406ZM239.602 2.08006C239.122 2.08006 238.695 2.17073 238.322 2.35206C237.948 2.53339 237.655 2.78406 237.442 3.10406C237.239 3.42406 237.138 3.80806 237.138 4.25606C237.138 4.91739 237.367 5.44539 237.826 5.84006C238.284 6.22406 238.903 6.41606 239.682 6.41606C240.194 6.41606 240.642 6.32006 241.026 6.12806C241.42 5.93606 241.724 5.67473 241.938 5.34406C242.162 5.01339 242.274 4.64539 242.274 4.24006C242.274 3.84539 242.172 3.48806 241.97 3.16806C241.767 2.84806 241.468 2.58673 241.074 2.38406C240.679 2.18139 240.188 2.08006 239.602 2.08006ZM245.673 14.4801L246.473 11.2481L246.681 12.1761C246.372 12.1761 246.11 12.0801 245.897 11.8881C245.694 11.6961 245.593 11.4347 245.593 11.1041C245.593 10.7841 245.694 10.5227 245.897 10.3201C246.11 10.1174 246.366 10.0161 246.665 10.0161C246.974 10.0161 247.225 10.1227 247.417 10.3361C247.609 10.5387 247.705 10.7947 247.705 11.1041C247.705 11.2107 247.694 11.3174 247.673 11.4241C247.662 11.5201 247.636 11.6374 247.593 11.7761C247.561 11.9041 247.508 12.0641 247.433 12.2561L246.681 14.4801H245.673ZM254.427 12.1121V0.91206H258.795C259.776 0.91206 260.614 1.06673 261.307 1.37606C262 1.68539 262.534 2.13339 262.907 2.72006C263.28 3.30673 263.467 4.00539 263.467 4.81606C263.467 5.62673 263.28 6.32539 262.907 6.91206C262.534 7.48806 262 7.93606 261.307 8.25606C260.614 8.56539 259.776 8.72006 258.795 8.72006H255.307L256.027 7.96806V12.1121H254.427ZM256.027 8.12806L255.307 7.32806H258.747C259.771 7.32806 260.544 7.10939 261.067 6.67206C261.6 6.23473 261.867 5.61606 261.867 4.81606C261.867 4.01606 261.6 3.39739 261.067 2.96006C260.544 2.52273 259.771 2.30406 258.747 2.30406H255.307L256.027 1.50406V8.12806ZM270.779 12.1121V10.3201L270.699 9.98406V6.92806C270.699 6.27739 270.507 5.77606 270.123 5.42406C269.75 5.06139 269.185 4.88006 268.427 4.88006C267.926 4.88006 267.435 4.96539 266.955 5.13606C266.475 5.29606 266.07 5.51473 265.739 5.79206L265.099 4.64006C265.537 4.28806 266.059 4.02139 266.667 3.84006C267.286 3.64806 267.931 3.55206 268.603 3.55206C269.766 3.55206 270.662 3.83473 271.291 4.40006C271.921 4.96539 272.235 5.82939 272.235 6.99206V12.1121H270.779ZM267.995 12.2081C267.366 12.2081 266.811 12.1014 266.331 11.8881C265.862 11.6747 265.499 11.3814 265.243 11.0081C264.987 10.6241 264.859 10.1921 264.859 9.71206C264.859 9.25339 264.966 8.83739 265.179 8.46406C265.403 8.09073 265.761 7.79206 266.251 7.56806C266.753 7.34406 267.425 7.23206 268.267 7.23206H270.955V8.33606H268.331C267.563 8.33606 267.046 8.46406 266.779 8.72006C266.513 8.97606 266.379 9.28539 266.379 9.64806C266.379 10.0641 266.545 10.4001 266.875 10.6561C267.206 10.9014 267.665 11.0241 268.251 11.0241C268.827 11.0241 269.329 10.8961 269.755 10.6401C270.193 10.3841 270.507 10.0107 270.699 9.52006L271.003 10.5761C270.801 11.0774 270.443 11.4774 269.931 11.7761C269.419 12.0641 268.774 12.2081 267.995 12.2081ZM277.51 12.2081C276.806 12.2081 276.134 12.1121 275.494 11.9201C274.865 11.7281 274.369 11.4934 274.006 11.2161L274.646 10.0001C275.009 10.2454 275.457 10.4534 275.99 10.6241C276.523 10.7947 277.067 10.8801 277.622 10.8801C278.337 10.8801 278.849 10.7787 279.158 10.5761C279.478 10.3734 279.638 10.0907 279.638 9.72806C279.638 9.46139 279.542 9.25339 279.35 9.10406C279.158 8.95473 278.902 8.84273 278.582 8.76806C278.273 8.69339 277.926 8.62939 277.542 8.57606C277.158 8.51206 276.774 8.43739 276.39 8.35206C276.006 8.25606 275.654 8.12806 275.334 7.96806C275.014 7.79739 274.758 7.56806 274.566 7.28006C274.374 6.98139 274.278 6.58673 274.278 6.09606C274.278 5.58406 274.422 5.13606 274.71 4.75206C274.998 4.36806 275.403 4.07473 275.926 3.87206C276.459 3.65873 277.089 3.55206 277.814 3.55206C278.369 3.55206 278.929 3.62139 279.494 3.76006C280.07 3.88806 280.539 4.07473 280.902 4.32006L280.246 5.53606C279.862 5.28006 279.462 5.10406 279.046 5.00806C278.63 4.91206 278.214 4.86406 277.798 4.86406C277.126 4.86406 276.625 4.97606 276.294 5.20006C275.963 5.41339 275.798 5.69073 275.798 6.03206C275.798 6.32006 275.894 6.54406 276.086 6.70406C276.289 6.85339 276.545 6.97073 276.854 7.05606C277.174 7.14139 277.526 7.21606 277.91 7.28006C278.294 7.33339 278.678 7.40806 279.062 7.50406C279.446 7.58939 279.793 7.71206 280.102 7.87206C280.422 8.03206 280.678 8.25606 280.87 8.54406C281.073 8.83206 281.174 9.21606 281.174 9.69606C281.174 10.2081 281.025 10.6507 280.726 11.0241C280.427 11.3974 280.006 11.6907 279.462 11.9041C278.918 12.1067 278.267 12.2081 277.51 12.2081ZM288.358 12.1121V10.3201L288.278 9.98406V6.92806C288.278 6.27739 288.086 5.77606 287.702 5.42406C287.328 5.06139 286.763 4.88006 286.006 4.88006C285.504 4.88006 285.014 4.96539 284.534 5.13606C284.054 5.29606 283.648 5.51473 283.318 5.79206L282.678 4.64006C283.115 4.28806 283.638 4.02139 284.246 3.84006C284.864 3.64806 285.51 3.55206 286.182 3.55206C287.344 3.55206 288.24 3.83473 288.87 4.40006C289.499 4.96539 289.814 5.82939 289.814 6.99206V12.1121H288.358ZM285.574 12.2081C284.944 12.2081 284.39 12.1014 283.91 11.8881C283.44 11.6747 283.078 11.3814 282.822 11.0081C282.566 10.6241 282.438 10.1921 282.438 9.71206C282.438 9.25339 282.544 8.83739 282.758 8.46406C282.982 8.09073 283.339 7.79206 283.83 7.56806C284.331 7.34406 285.003 7.23206 285.846 7.23206H288.534V8.33606H285.91C285.142 8.33606 284.624 8.46406 284.358 8.72006C284.091 8.97606 283.958 9.28539 283.958 9.64806C283.958 10.0641 284.123 10.4001 284.454 10.6561C284.784 10.9014 285.243 11.0241 285.83 11.0241C286.406 11.0241 286.907 10.8961 287.334 10.6401C287.771 10.3841 288.086 10.0107 288.278 9.52006L288.582 10.5761C288.379 11.0774 288.022 11.4774 287.51 11.7761C286.998 12.0641 286.352 12.2081 285.574 12.2081ZM296.16 12.2081C295.339 12.2081 294.603 12.0267 293.952 11.6641C293.312 11.3014 292.805 10.7947 292.432 10.1441C292.059 9.49339 291.872 8.73606 291.872 7.87206C291.872 7.00806 292.059 6.25606 292.432 5.61606C292.805 4.96539 293.312 4.45873 293.952 4.09606C294.603 3.73339 295.339 3.55206 296.16 3.55206C296.875 3.55206 297.52 3.71206 298.096 4.03206C298.672 4.35206 299.131 4.83206 299.472 5.47206C299.824 6.11206 300 6.91206 300 7.87206C300 8.83206 299.829 9.63206 299.488 10.2721C299.157 10.9121 298.704 11.3974 298.128 11.7281C297.552 12.0481 296.896 12.2081 296.16 12.2081ZM296.288 10.8641C296.821 10.8641 297.301 10.7414 297.728 10.4961C298.165 10.2507 298.507 9.90406 298.752 9.45606C299.008 8.99739 299.136 8.46939 299.136 7.87206C299.136 7.26406 299.008 6.74139 298.752 6.30406C298.507 5.85606 298.165 5.50939 297.728 5.26406C297.301 5.01873 296.821 4.89606 296.288 4.89606C295.744 4.89606 295.259 5.01873 294.832 5.26406C294.405 5.50939 294.064 5.85606 293.808 6.30406C293.552 6.74139 293.424 7.26406 293.424 7.87206C293.424 8.46939 293.552 8.99739 293.808 9.45606C294.064 9.90406 294.405 10.2507 294.832 10.4961C295.259 10.7414 295.744 10.8641 296.288 10.8641ZM299.184 12.1121V9.82406L299.28 7.85606L299.12 5.88806V0.24006H300.656V12.1121H299.184ZM307.338 12.2081C306.432 12.2081 305.632 12.0214 304.938 11.6481C304.256 11.2747 303.722 10.7627 303.338 10.1121C302.965 9.46139 302.778 8.71473 302.778 7.87206C302.778 7.02939 302.96 6.28273 303.322 5.63206C303.696 4.98139 304.202 4.47473 304.842 4.11206C305.493 3.73873 306.224 3.55206 307.034 3.55206C307.856 3.55206 308.581 3.73339 309.21 4.09606C309.84 4.45873 310.33 4.97073 310.682 5.63206C311.045 6.28273 311.226 7.04539 311.226 7.92006C311.226 7.98406 311.221 8.05873 311.21 8.14406C311.21 8.22939 311.205 8.30939 311.194 8.38406H303.978V7.28006H310.394L309.77 7.66406C309.781 7.12006 309.669 6.63473 309.434 6.20806C309.2 5.78139 308.874 5.45073 308.458 5.21606C308.053 4.97073 307.578 4.84806 307.034 4.84806C306.501 4.84806 306.026 4.97073 305.61 5.21606C305.194 5.45073 304.869 5.78673 304.634 6.22406C304.4 6.65073 304.282 7.14139 304.282 7.69606V7.95206C304.282 8.51739 304.41 9.02406 304.666 9.47206C304.933 9.90939 305.301 10.2507 305.77 10.4961C306.24 10.7414 306.778 10.8641 307.386 10.8641C307.888 10.8641 308.341 10.7787 308.746 10.6081C309.162 10.4374 309.525 10.1814 309.834 9.84006L310.682 10.8321C310.298 11.2801 309.818 11.6214 309.242 11.8561C308.677 12.0907 308.042 12.2081 307.338 12.2081ZM317.887 3.55206C318.581 3.55206 319.189 3.68539 319.711 3.95206C320.245 4.21873 320.661 4.62406 320.959 5.16806C321.258 5.71206 321.407 6.40006 321.407 7.23206V12.1121H319.871V7.40806C319.871 6.58673 319.669 5.96806 319.263 5.55206C318.869 5.13606 318.309 4.92806 317.583 4.92806C317.039 4.92806 316.565 5.03473 316.159 5.24806C315.754 5.46139 315.439 5.77606 315.215 6.19206C315.002 6.60806 314.895 7.12539 314.895 7.74406V12.1121H313.359V3.63206H314.831V5.92006L314.591 5.31206C314.869 4.75739 315.295 4.32539 315.871 4.01606C316.447 3.70673 317.119 3.55206 317.887 3.55206ZM329.514 12.1121V10.3201L329.434 9.98406V6.92806C329.434 6.27739 329.242 5.77606 328.858 5.42406C328.485 5.06139 327.919 4.88006 327.162 4.88006C326.661 4.88006 326.17 4.96539 325.69 5.13606C325.21 5.29606 324.805 5.51473 324.474 5.79206L323.834 4.64006C324.271 4.28806 324.794 4.02139 325.402 3.84006C326.021 3.64806 326.666 3.55206 327.338 3.55206C328.501 3.55206 329.397 3.83473 330.026 4.40006C330.655 4.96539 330.97 5.82939 330.97 6.99206V12.1121H329.514ZM326.73 12.2081C326.101 12.2081 325.546 12.1014 325.066 11.8881C324.597 11.6747 324.234 11.3814 323.978 11.0081C323.722 10.6241 323.594 10.1921 323.594 9.71206C323.594 9.25339 323.701 8.83739 323.914 8.46406C324.138 8.09073 324.495 7.79206 324.986 7.56806C325.487 7.34406 326.159 7.23206 327.002 7.23206H329.69V8.33606H327.066C326.298 8.33606 325.781 8.46406 325.514 8.72006C325.247 8.97606 325.114 9.28539 325.114 9.64806C325.114 10.0641 325.279 10.4001 325.61 10.6561C325.941 10.9014 326.399 11.0241 326.986 11.0241C327.562 11.0241 328.063 10.8961 328.49 10.6401C328.927 10.3841 329.242 10.0107 329.434 9.52006L329.738 10.5761C329.535 11.0774 329.178 11.4774 328.666 11.7761C328.154 12.0641 327.509 12.2081 326.73 12.2081ZM333.204 14.4801L334.004 11.2481L334.212 12.1761C333.903 12.1761 333.642 12.0801 333.428 11.8881C333.226 11.6961 333.124 11.4347 333.124 11.1041C333.124 10.7841 333.226 10.5227 333.428 10.3201C333.642 10.1174 333.898 10.0161 334.196 10.0161C334.506 10.0161 334.756 10.1227 334.948 10.3361C335.14 10.5387 335.236 10.7947 335.236 11.1041C335.236 11.2107 335.226 11.3174 335.204 11.4241C335.194 11.5201 335.167 11.6374 335.124 11.7761C335.092 11.9041 335.039 12.0641 334.964 12.2561L334.212 14.4801H333.204ZM346.966 12.2401C346.113 12.2401 345.324 12.1014 344.598 11.8241C343.884 11.5361 343.26 11.1361 342.726 10.6241C342.204 10.1014 341.793 9.49339 341.494 8.80006C341.196 8.10673 341.046 7.34406 341.046 6.51206C341.046 5.68006 341.196 4.91739 341.494 4.22406C341.793 3.53073 342.209 2.92806 342.742 2.41606C343.276 1.89339 343.9 1.49339 344.614 1.21606C345.34 0.92806 346.129 0.78406 346.982 0.78406C347.846 0.78406 348.641 0.933394 349.366 1.23206C350.102 1.52006 350.726 1.95206 351.238 2.52806L350.198 3.53606C349.772 3.08806 349.292 2.75739 348.758 2.54406C348.225 2.32006 347.654 2.20806 347.046 2.20806C346.417 2.20806 345.83 2.31473 345.286 2.52806C344.753 2.74139 344.289 3.04006 343.894 3.42406C343.5 3.80806 343.19 4.26673 342.966 4.80006C342.753 5.32273 342.646 5.89339 342.646 6.51206C342.646 7.13073 342.753 7.70673 342.966 8.24006C343.19 8.76273 343.5 9.21606 343.894 9.60006C344.289 9.98406 344.753 10.2827 345.286 10.4961C345.83 10.7094 346.417 10.8161 347.046 10.8161C347.654 10.8161 348.225 10.7094 348.758 10.4961C349.292 10.2721 349.772 9.93073 350.198 9.47206L351.238 10.4801C350.726 11.0561 350.102 11.4934 349.366 11.7921C348.641 12.0907 347.841 12.2401 346.966 12.2401ZM351.559 12.1121L356.631 0.91206H358.215L363.303 12.1121H361.623L357.095 1.80806H357.735L353.207 12.1121H351.559ZM353.719 9.31206L354.151 8.03206H360.455L360.919 9.31206H353.719ZM371.991 0.78406C373.004 0.78406 373.857 1.00273 374.551 1.44006C375.255 1.87739 375.788 2.51206 376.151 3.34406C376.513 4.16539 376.695 5.17339 376.695 6.36806C376.695 7.63739 376.471 8.70939 376.023 9.58406C375.575 10.4587 374.956 11.1201 374.167 11.5681C373.377 12.0161 372.455 12.2401 371.399 12.2401C370.876 12.2401 370.369 12.1867 369.879 12.0801C369.399 11.9734 368.977 11.8081 368.615 11.5841L369.223 10.3361C369.521 10.5281 369.852 10.6667 370.215 10.7521C370.588 10.8267 370.977 10.8641 371.383 10.8641C372.513 10.8641 373.415 10.5121 374.087 9.80806C374.759 9.09339 375.095 8.03739 375.095 6.64006C375.095 6.41606 375.084 6.14939 375.063 5.84006C375.041 5.53073 374.993 5.22673 374.919 4.92806L375.447 5.47206C375.297 5.96273 375.047 6.37873 374.695 6.72006C374.353 7.05073 373.937 7.30139 373.447 7.47206C372.967 7.63206 372.439 7.71206 371.863 7.71206C371.127 7.71206 370.471 7.57339 369.895 7.29606C369.319 7.01873 368.865 6.62939 368.535 6.12806C368.204 5.61606 368.039 5.01339 368.039 4.32006C368.039 3.59473 368.209 2.97073 368.551 2.44806C368.903 1.91473 369.377 1.50406 369.975 1.21606C370.583 0.92806 371.255 0.78406 371.991 0.78406ZM372.055 2.08006C371.575 2.08006 371.148 2.17073 370.775 2.35206C370.401 2.53339 370.108 2.78406 369.895 3.10406C369.692 3.42406 369.591 3.80806 369.591 4.25606C369.591 4.91739 369.82 5.44539 370.279 5.84006C370.737 6.22406 371.356 6.41606 372.135 6.41606C372.647 6.41606 373.095 6.32006 373.479 6.12806C373.873 5.93606 374.177 5.67473 374.391 5.34406C374.615 5.01339 374.727 4.64539 374.727 4.24006C374.727 3.84539 374.625 3.48806 374.423 3.16806C374.22 2.84806 373.921 2.58673 373.527 2.38406C373.132 2.18139 372.641 2.08006 372.055 2.08006ZM380.122 12.1121V1.55206L380.81 2.30406H377.594V0.91206H381.706V12.1121H380.122ZM386.044 12.1121V1.55206L386.732 2.30406H383.516V0.91206H387.628V12.1121H386.044ZM394.653 12.2401C393.779 12.2401 392.995 12.0161 392.301 11.5681C391.619 11.1201 391.075 10.4694 390.669 9.61606C390.275 8.76273 390.077 7.72806 390.077 6.51206C390.077 5.29606 390.275 4.26139 390.669 3.40806C391.075 2.55473 391.619 1.90406 392.301 1.45606C392.995 1.00806 393.779 0.78406 394.653 0.78406C395.517 0.78406 396.296 1.00806 396.989 1.45606C397.683 1.90406 398.227 2.55473 398.621 3.40806C399.016 4.26139 399.213 5.29606 399.213 6.51206C399.213 7.72806 399.016 8.76273 398.621 9.61606C398.227 10.4694 397.683 11.1201 396.989 11.5681C396.296 12.0161 395.517 12.2401 394.653 12.2401ZM394.653 10.8161C395.24 10.8161 395.752 10.6561 396.189 10.3361C396.637 10.0161 396.984 9.53606 397.229 8.89606C397.485 8.25606 397.613 7.46139 397.613 6.51206C397.613 5.56273 397.485 4.76806 397.229 4.12806C396.984 3.48806 396.637 3.00806 396.189 2.68806C395.752 2.36806 395.24 2.20806 394.653 2.20806C394.067 2.20806 393.549 2.36806 393.101 2.68806C392.653 3.00806 392.301 3.48806 392.045 4.12806C391.8 4.76806 391.677 5.56273 391.677 6.51206C391.677 7.46139 391.8 8.25606 392.045 8.89606C392.301 9.53606 392.653 10.0161 393.101 10.3361C393.549 10.6561 394.067 10.8161 394.653 10.8161ZM404.017 12.2401C403.228 12.2401 402.46 12.1174 401.713 11.8721C400.977 11.6267 400.374 11.2961 399.905 10.8801L400.641 9.61606C401.014 9.96806 401.5 10.2561 402.097 10.4801C402.694 10.7041 403.334 10.8161 404.017 10.8161C404.849 10.8161 405.494 10.6401 405.953 10.2881C406.422 9.92539 406.657 9.44006 406.657 8.83206C406.657 8.24539 406.433 7.77606 405.985 7.42406C405.548 7.06139 404.849 6.88006 403.889 6.88006H402.993V5.76006L406.321 1.66406L406.545 2.30406H400.417V0.91206H407.809V2.00006L404.497 6.08006L403.665 5.58406H404.193C405.548 5.58406 406.561 5.88806 407.233 6.49606C407.916 7.10406 408.257 7.87739 408.257 8.81606C408.257 9.44539 408.102 10.0214 407.793 10.5441C407.484 11.0667 407.014 11.4827 406.385 11.7921C405.766 12.0907 404.977 12.2401 404.017 12.2401Z" fill="#212121"/>
</svg>
