<svg width="329" height="354" viewBox="0 0 329 354" fill="none" xmlns="http://www.w3.org/2000/svg">
<g clip-path="url(#clip0_77_2)">
<path d="M328.446 16.4903L264.025 230.878C262.398 236.292 257.417 240 251.763 240H215.628C210.96 239.98 206.373 238.74 202.332 236.386C198.291 234.039 194.937 230.658 192.616 226.597L181.407 207.013C178.893 202.612 177.579 197.651 177.579 192.583V152.427C177.566 151.707 177.766 151.007 178.133 150.387C178.513 149.78 179.046 149.28 179.687 148.96C180.327 148.633 181.047 148.493 181.76 148.553C182.481 148.613 183.161 148.873 183.741 149.3L244.881 192.289C245.268 192.583 245.715 192.796 246.181 192.896C246.655 193.01 247.142 193.023 247.622 192.916C248.095 192.816 248.542 192.623 248.942 192.329C249.329 192.043 249.649 191.683 249.896 191.256L257.024 178.96C257.571 178.006 257.797 176.899 257.644 175.799C257.497 174.712 257.004 173.699 256.224 172.918L183.027 102.956C181.3 101.229 179.933 99.1754 178.986 96.9215C178.053 94.6677 177.566 92.2405 177.566 89.7933V58.7664C177.566 52.5383 173.152 37.9551 167.29 34.6277C166.53 34.2209 165.69 33.9742 164.823 33.9142C164.717 33.9075 164.603 33.9075 164.497 33.9075C164.39 33.9075 164.276 33.9075 164.17 33.9142C163.303 33.9742 162.463 34.2209 161.703 34.6277C155.841 37.9551 151.427 52.5383 151.427 58.7664V89.7933C151.427 92.2405 150.94 94.6677 150.007 96.9215C149.06 99.1754 147.693 101.229 145.966 102.956L72.7695 172.918C71.9893 173.699 71.4959 174.712 71.3492 175.799C71.1958 176.899 71.4225 178.006 71.9693 178.96L79.0976 191.256C79.3443 191.683 79.6644 192.043 80.0511 192.329C80.4512 192.623 80.898 192.816 81.3714 192.916C81.8515 193.023 82.3383 193.01 82.8117 192.896C83.2785 192.796 83.7253 192.583 84.112 192.289L145.252 149.3C145.832 148.873 146.513 148.613 147.233 148.553C147.946 148.493 148.666 148.633 149.307 148.96C149.947 149.28 150.48 149.78 150.86 150.387C151.227 151.007 151.427 151.707 151.414 152.427V192.583C151.414 197.651 150.1 202.612 147.586 207.013L136.377 226.597C134.056 230.658 130.702 234.039 126.661 236.386C122.621 238.74 118.033 239.98 113.365 240H77.2305C71.5759 240 66.5948 236.292 64.9678 230.878L0.546772 16.4903C-1.92044 8.27517 4.23426 0 12.8162 0H60.1734C65.8079 0 70.7891 3.68749 72.4227 9.08202L100.956 103.043L137.784 8.16848C139.698 3.24072 144.439 0 149.727 0H179.266C184.554 0 189.295 3.24072 191.209 8.16848L228.037 103.043L256.57 9.08202C258.204 3.68749 263.185 0 268.82 0H316.177C324.759 0 330.914 8.27517 328.446 16.4903Z" fill="#1273EB"/>
</g>
<path d="M106.841 329.804L92.6695 288H85.9276L71.4922 329.594L57.5855 288H50.024L67.2091 339.15H75.0614L89.1267 298.267L103.086 339.15H110.806L127.991 288H121.012L106.841 329.804Z" fill="#1273EB"/>
<path d="M158.755 302.442C155.874 300.781 152.543 299.964 148.763 299.964C144.984 299.964 141.706 300.808 138.745 302.495C135.785 304.182 133.459 306.503 131.767 309.482C130.075 312.461 129.229 315.862 129.229 319.738C129.229 323.613 130.102 327.014 131.82 329.994C133.564 332.973 135.996 335.319 139.168 337.007C142.34 338.72 145.988 339.564 150.138 339.564C153.363 339.564 156.297 339.037 158.914 337.956C161.531 336.875 163.725 335.319 165.469 333.263L161.584 328.728C160.156 330.284 158.517 331.47 156.641 332.235C154.764 333.026 152.676 333.395 150.376 333.395C147.574 333.395 145.116 332.841 142.975 331.707C140.807 330.574 139.142 329.018 137.952 326.988C137.054 325.485 136.525 323.851 136.287 322.058H167.875C167.927 321.715 167.954 321.346 167.98 320.951C168.007 320.555 168.007 320.212 168.007 319.922C168.007 315.915 167.187 312.408 165.548 309.429C163.91 306.424 161.636 304.103 158.755 302.442ZM142.234 307.531C144.138 306.424 146.332 305.896 148.763 305.896C151.195 305.896 153.442 306.45 155.319 307.531C157.196 308.638 158.676 310.167 159.76 312.118C160.579 313.595 161.055 315.229 161.24 317.022H136.234C136.446 315.256 136.948 313.621 137.741 312.145C138.825 310.167 140.305 308.638 142.208 307.531H142.234Z" fill="#1273EB"/>
<path d="M178.732 339.151H186.087V318.459H211.859V312.194H186.087V294.345H215.034V288.001H178.732V339.151Z" fill="#1273EB"/>
<path d="M231.535 288.001H224.11V339.151H231.535V288.001Z" fill="#1273EB"/>
<path d="M272.135 300.376L258.769 331.472L245.272 300.376H237.958L255.033 339.193L253.797 341.943C252.823 344.191 251.771 345.751 250.666 346.65C249.535 347.522 248.14 347.972 246.43 347.972C245.115 347.972 243.878 347.734 242.694 347.231C241.536 346.729 240.458 346.041 239.484 345.116L236.485 350.404C237.748 351.568 239.274 352.467 241.01 353.075C242.747 353.683 244.562 354.001 246.404 354.001C248.403 354.001 250.219 353.683 251.876 352.996C253.534 352.335 255.06 351.224 256.454 349.664C257.848 348.104 259.111 345.936 260.216 343.212L278.975 300.428H272.108L272.135 300.376Z" fill="#1273EB"/>
<defs>
<clipPath id="clip0_77_2">
<rect width="329" height="240" fill="white"/>
</clipPath>
</defs>
</svg>
