<svg width="1500" height="750" viewBox="0 0 1500 750" fill="none" xmlns="http://www.w3.org/2000/svg">
<path fill-rule="evenodd" clip-rule="evenodd" d="M801 0C801 28.1665 778.167 51 750 51C721.833 51 699 28.1665 699 0H82C36.7127 0 0 36.7127 0 82V324C28.1665 324 51 346.833 51 375C51 403.167 28.1665 426 0 426V668C0 713.287 36.7126 750 82 750H699C699 721.833 721.833 699 750 699C778.167 699 801 721.833 801 750H1418C1463.29 750 1500 713.287 1500 668V426C1471.83 426 1449 403.167 1449 375C1449 346.833 1471.83 324 1500 324V82C1500 36.7127 1463.29 0 1418 0H801Z" fill="#1273EB" fill-opacity="0.06"/>
</svg>
