<?xml version="1.0" encoding="utf-8"?>
<!-- Generator: Adobe Illustrator 27.5.0, SVG Export Plug-In . SVG Version: 6.00 Build 0)  -->
<svg version="1.1" xmlns="http://www.w3.org/2000/svg" xmlns:xlink="http://www.w3.org/1999/xlink" x="0px" y="0px"
	 viewBox="0 0 600 600" style="enable-background:new 0 0 600 600;" xml:space="preserve">
<g id="background">
	<rect style="fill:#FFFFFF;" width="600" height="600"/>
</g>
<g id="objects">
	<g>
		<g>
			<path style="fill:#FCD031;" d="M386.151,428.052l-305.565,94.9c-13.25,4.113-25.682-8.319-21.569-21.569l94.9-305.565
				L386.151,428.052z"/>
			
				<ellipse transform="matrix(0.7071 -0.7071 0.7071 0.7071 -134.0836 285.3702)" style="fill:#FFDA64;" cx="277.43" cy="304.538" rx="57.03" ry="167.017"/>
			<linearGradient id="SVGID_1_" gradientUnits="userSpaceOnUse" x1="243.8478" y1="340.358" x2="311.0141" y2="268.714">
				<stop  offset="0" style="stop-color:#765246"/>
				<stop  offset="1" style="stop-color:#513C35"/>
			</linearGradient>
			<path style="fill:url(#SVGID_1_);" d="M384.81,411.91c-8.718,8.707-28.598,6.282-54.577-6.671
				c-27.309-13.619-58.343-37.111-87.371-66.139c-29.028-29.018-52.51-60.051-66.129-87.371
				c-12.954-25.969-15.389-45.86-6.681-54.567c8.707-8.707,28.598-6.272,54.577,6.681c27.309,13.619,58.343,37.101,87.371,66.129
				s52.51,60.062,66.129,87.371C391.082,383.312,393.518,403.203,384.81,411.91z"/>
			<path style="fill:#2252FF;" d="M342.298,441.671l-59.142,18.366c-13.123-4.689-26.028-10.324-38.69-16.879
				c-27.56-14.276-54.078-33.016-78.815-55.691c-4.015-3.681-8.411-7.869-13.089-12.547c-12.092-12.092-26.034-27.462-39.998-45.943
				l12.156-39.14c22.203,33.379,46.174,58.226,62.955,73.601C234.909,406.743,286.867,433.018,342.298,441.671z"/>
			<path style="fill:#2252FF;" d="M243.66,472.308l-46.629,14.483c-26.662-14.114-52.321-32.399-76.315-54.389
				c-4.015-3.681-8.411-7.869-13.089-12.547c-5.519-5.519-11.412-11.712-17.525-18.573l11.447-36.864
				c15.174,18.792,29.836,33.546,41.191,43.956C174.385,437.391,208.15,458.758,243.66,472.308z"/>
			<path style="fill:#2252FF;" d="M159.228,498.531l-40.926,12.709c-14.633-10.035-28.851-21.373-42.521-33.903
				c-2.281-2.097-4.684-4.35-7.195-6.769l10.928-35.182c6.648,6.948,12.853,12.933,18.291,17.922
				C117.49,471.357,137.993,486.445,159.228,498.531z"/>
		</g>
		<g>
			<path style="fill:#F2112D;" d="M236,234.548l-14.47-14.47c22.979-22.979,36.112-52.507,39.034-87.764
				c2.223-26.822-2.616-47.057-2.665-47.258l19.867-4.906c0.23,0.93,5.618,23.119,3.254,53.098
				C277.867,173.22,262.3,208.249,236,234.548z"/>
			<path style="fill:#2252FF;" d="M351.038,364.056l-14.47-14.47c28.335-28.335,68.424-42.587,115.934-41.216
				c35.269,1.018,62.101,10.175,63.226,10.565l-6.694,19.338l3.347-9.669l-3.336,9.673c-0.25-0.086-25.448-8.628-57.699-9.467
				C409.269,327.714,375.521,339.573,351.038,364.056z"/>
			<path style="fill:#FF4901;" d="M280.236,213.886c7.416-12.329,17.167-15.548,24.287-17.899c6.026-1.989,9.663-3.19,13.167-9.014
				c3.503-5.824,2.859-9.6,1.792-15.855c-1.26-7.391-2.986-17.514,4.429-29.843c7.416-12.33,17.168-15.55,24.288-17.901
				c6.027-1.99,9.664-3.191,13.169-9.016c3.504-5.826,2.86-9.602,1.794-15.858c-1.26-7.392-2.986-17.515,4.43-29.845l17.536,10.548
				c-3.504,5.826-2.86,9.602-1.794,15.858c1.26,7.392,2.986,17.515-4.43,29.845c-7.417,12.329-17.168,15.549-24.288,17.9
				c-6.027,1.99-9.665,3.191-13.169,9.017c-3.503,5.823-2.859,9.6-1.793,15.854c1.261,7.392,2.987,17.514-4.429,29.844
				c-7.416,12.329-17.167,15.548-24.287,17.899c-6.026,1.989-9.663,3.19-13.167,9.014L280.236,213.886z"/>
			<path style="fill:#7416EF;" d="M364.602,268.732l-10.027-17.839c12.925-7.264,23.321-5.175,30.911-3.65
				c6.576,1.322,10.545,2.12,16.852-1.425c6.307-3.544,7.689-7.35,9.977-13.654c2.643-7.278,6.262-17.244,19.186-24.509
				c12.926-7.265,23.323-5.175,30.913-3.65c6.577,1.321,10.546,2.119,16.855-1.427c6.308-3.546,7.691-7.352,9.981-13.656
				c2.643-7.278,6.263-17.245,19.188-24.51l10.027,17.84c-6.308,3.546-7.69,7.351-9.98,13.656
				c-2.643,7.278-6.263,17.245-19.189,24.51c-12.926,7.265-23.322,5.175-30.913,3.65c-6.576-1.322-10.546-2.12-16.854,1.426
				c-6.307,3.544-7.689,7.35-9.977,13.654c-2.643,7.278-6.262,17.244-19.186,24.509c-12.925,7.264-23.321,5.174-30.912,3.649
				C374.878,265.985,370.909,265.187,364.602,268.732z"/>
			<circle style="fill:#7416EF;" cx="494.293" cy="259.871" r="10.232"/>
			<circle style="fill:#F2112D;" cx="448.712" cy="379.25" r="10.232"/>
			<circle style="fill:#2252FF;" cx="542.768" cy="292.429" r="10.232"/>
			<circle style="fill:#FF4901;" cx="459.565" cy="151.345" r="10.232"/>
			<circle style="fill:#2252FF;" cx="309.075" cy="76.1" r="10.232"/>
			<circle style="fill:#FCD031;" cx="379.979" cy="164.368" r="10.232"/>
			<circle style="fill:#FF4901;" cx="302.563" cy="290.982" r="10.232"/>
			<circle style="fill:#7416EF;" cx="195.484" cy="124.575" r="10.232"/>
		</g>
	</g>
</g>
</svg>
