<svg width="119" height="20" viewBox="0 0 119 20" fill="none" xmlns="http://www.w3.org/2000/svg">
<path d="M12.8722 4.51225C12.673 4.51225 12.4783 4.57131 12.3127 4.68196C12.1471 4.7926 12.0181 4.94986 11.9419 5.13386C11.8656 5.31786 11.8457 5.52032 11.8846 5.71565C11.9234 5.91098 12.0193 6.0904 12.1601 6.23122C12.301 6.37205 12.4804 6.46795 12.6757 6.5068C12.871 6.54566 13.0735 6.52571 13.2575 6.4495C13.4415 6.37329 13.5988 6.24423 13.7094 6.07863C13.82 5.91304 13.8791 5.71836 13.8791 5.5192C13.8791 5.25214 13.773 4.99602 13.5842 4.80718C13.3953 4.61834 13.1392 4.51225 12.8722 4.51225ZM16.7321 6.54293C16.7158 5.84671 16.5854 5.15788 16.3461 4.50386C16.1328 3.94428 15.8007 3.43757 15.3727 3.01861C14.9572 2.5885 14.4493 2.25852 13.8875 2.05362C13.2352 1.80705 12.5456 1.67368 11.8484 1.65923C10.959 1.60889 10.6737 1.60889 8.39124 1.60889C6.10882 1.60889 5.82352 1.60889 4.93405 1.65923C4.23686 1.67368 3.54726 1.80705 2.89498 2.05362C2.33417 2.26059 1.82672 2.59029 1.40973 3.01861C0.979615 3.43413 0.64963 3.94202 0.444735 4.50386C0.198168 5.15615 0.0647887 5.84575 0.0503474 6.54293C-4.68897e-08 7.4324 0 7.71771 0 10.0001C0 12.2825 -4.68897e-08 12.5678 0.0503474 13.4573C0.0647887 14.1545 0.198168 14.8441 0.444735 15.4964C0.64963 16.0582 0.979615 16.5661 1.40973 16.9816C1.82672 17.41 2.33417 17.7397 2.89498 17.9466C3.54726 18.1932 4.23686 18.3266 4.93405 18.341C5.82352 18.3914 6.10882 18.3914 8.39124 18.3914C10.6737 18.3914 10.959 18.3914 11.8484 18.341C12.5456 18.3266 13.2352 18.1932 13.8875 17.9466C14.4493 17.7417 14.9572 17.4117 15.3727 16.9816C15.8026 16.5642 16.135 16.0571 16.3461 15.4964C16.5854 14.8424 16.7158 14.1535 16.7321 13.4573C16.7321 12.5678 16.7825 12.2825 16.7825 10.0001C16.7825 7.71771 16.7825 7.4324 16.7321 6.54293ZM15.2217 13.3566C15.2156 13.8893 15.1191 14.417 14.9364 14.9174C14.8024 15.2826 14.5872 15.6125 14.3071 15.8824C14.0349 16.1597 13.7056 16.3745 13.3421 16.5117C12.8417 16.6944 12.3139 16.7909 11.7813 16.797C10.9422 16.839 10.6317 16.8474 8.4248 16.8474C6.21791 16.8474 5.90743 16.8474 5.06831 16.797C4.51523 16.8074 3.96452 16.7222 3.44041 16.5453C3.09283 16.401 2.77864 16.1868 2.51737 15.9159C2.23886 15.6464 2.02635 15.3161 1.89642 14.951C1.69155 14.4434 1.57792 13.9037 1.56077 13.3566C1.56077 12.5175 1.51042 12.207 1.51042 10.0001C1.51042 7.79323 1.51042 7.48275 1.56077 6.64363C1.56453 6.09908 1.66394 5.55943 1.85446 5.04929C2.00219 4.69511 2.22893 4.37939 2.51737 4.12626C2.77231 3.83774 3.08738 3.6086 3.44041 3.45496C3.9519 3.27039 4.49099 3.17392 5.03474 3.16966C5.87386 3.16966 6.18434 3.11931 8.39124 3.11931C10.5981 3.11931 10.9086 3.11931 11.7477 3.16966C12.2804 3.17577 12.8081 3.27224 13.3085 3.45496C13.6898 3.59648 14.0321 3.82656 14.3071 4.12626C14.582 4.38402 14.7969 4.69915 14.9364 5.04929C15.1229 5.56026 15.2194 6.09969 15.2217 6.64363C15.2637 7.48275 15.272 7.79323 15.272 10.0001C15.272 12.207 15.2637 12.5175 15.2217 13.3566ZM8.39124 5.69542C7.54021 5.69708 6.70876 5.95095 6.00196 6.42497C5.29516 6.89898 4.74472 7.57186 4.4202 8.35859C4.09567 9.14532 4.01162 10.0106 4.17866 10.8451C4.34571 11.6795 4.75635 12.4458 5.35871 13.047C5.96106 13.6481 6.7281 14.0573 7.5629 14.2227C8.3977 14.3881 9.2628 14.3024 10.0489 13.9763C10.835 13.6503 11.5068 13.0985 11.9794 12.3908C12.4521 11.6831 12.7043 10.8512 12.7043 10.0001C12.7054 9.4338 12.5946 8.87285 12.3781 8.34953C12.1616 7.82621 11.8439 7.35085 11.443 6.95079C11.0422 6.55073 10.5662 6.23387 10.0425 6.01842C9.51872 5.80298 8.95755 5.6932 8.39124 5.69542ZM8.39124 12.7944C7.83858 12.7944 7.29833 12.6305 6.83882 12.3235C6.3793 12.0164 6.02115 11.58 5.80966 11.0694C5.59816 10.5589 5.54283 9.99702 5.65065 9.45499C5.75846 8.91295 6.02459 8.41505 6.41538 8.02427C6.80617 7.63348 7.30406 7.36735 7.8461 7.25953C8.38814 7.15171 8.94997 7.20705 9.46056 7.41854C9.97115 7.63004 10.4076 7.98819 10.7146 8.4477C11.0216 8.90722 11.1855 9.44747 11.1855 10.0001C11.1855 10.3671 11.1132 10.7304 10.9728 11.0694C10.8324 11.4085 10.6266 11.7165 10.3671 11.976C10.1076 12.2355 9.79958 12.4413 9.46056 12.5817C9.12154 12.7221 8.75819 12.7944 8.39124 12.7944Z" fill="#1273EB"/>
<path d="M32.0065 18.828C31.0358 18.828 30.1491 18.6693 29.3465 18.352C28.5438 18.0347 27.8531 17.5913 27.2745 17.022C26.6958 16.4527 26.2478 15.7807 25.9305 15.006C25.6131 14.222 25.4545 13.368 25.4545 12.444C25.4545 11.52 25.6131 10.6707 25.9305 9.896C26.2478 9.12133 26.6958 8.44933 27.2745 7.88C27.8625 7.31067 28.5625 6.872 29.3745 6.564C30.1865 6.256 31.0825 6.102 32.0625 6.102C33.0238 6.102 33.9011 6.25133 34.6945 6.55C35.4878 6.84867 36.1738 7.27333 36.7525 7.824C37.3405 8.36533 37.7931 9.014 38.1105 9.77C38.4278 10.5167 38.5865 11.3427 38.5865 12.248C38.5865 13.0413 38.4885 13.7227 38.2925 14.292C38.0965 14.8613 37.8118 15.3047 37.4385 15.622C37.0745 15.93 36.6265 16.084 36.0945 16.084C35.5718 16.084 35.1518 15.9253 34.8345 15.608C34.5265 15.2907 34.3725 14.838 34.3725 14.25V13.298L34.4425 12.444L34.3165 10.834V8.972H35.5345V14.012C35.5345 14.3853 35.6091 14.6467 35.7585 14.796C35.9171 14.9453 36.1085 15.02 36.3325 15.02C36.6031 15.02 36.8365 14.9127 37.0325 14.698C37.2378 14.4833 37.3871 14.1707 37.4805 13.76C37.5831 13.34 37.6345 12.8407 37.6345 12.262C37.6345 11.478 37.4991 10.7687 37.2285 10.134C36.9671 9.49 36.5845 8.93467 36.0805 8.468C35.5858 8.00133 34.9978 7.64667 34.3165 7.404C33.6445 7.152 32.8931 7.026 32.0625 7.026C31.2318 7.026 30.4711 7.16133 29.7805 7.432C29.0991 7.69333 28.5111 8.06667 28.0165 8.552C27.5218 9.028 27.1391 9.59733 26.8685 10.26C26.6071 10.9227 26.4765 11.6507 26.4765 12.444C26.4765 13.2467 26.6071 13.984 26.8685 14.656C27.1298 15.3187 27.5031 15.888 27.9885 16.364C28.4831 16.8493 29.0665 17.2227 29.7385 17.484C30.4198 17.7547 31.1758 17.89 32.0065 17.89C32.4358 17.89 32.8885 17.8387 33.3645 17.736C33.8405 17.6427 34.2885 17.4887 34.7085 17.274L35.0165 18.17C34.5871 18.3847 34.1018 18.548 33.5605 18.66C33.0191 18.772 32.5011 18.828 32.0065 18.828ZM31.7545 16.084C31.0918 16.084 30.5038 15.93 29.9905 15.622C29.4771 15.3047 29.0711 14.8753 28.7725 14.334C28.4738 13.7927 28.3245 13.1767 28.3245 12.486C28.3245 11.786 28.4738 11.17 28.7725 10.638C29.0711 10.0967 29.4771 9.67667 29.9905 9.378C30.5038 9.07 31.0918 8.916 31.7545 8.916C32.3985 8.916 32.9631 9.056 33.4485 9.336C33.9338 9.60667 34.3118 10.008 34.5825 10.54C34.8625 11.072 35.0025 11.7207 35.0025 12.486C35.0025 13.2513 34.8671 13.9 34.5965 14.432C34.3258 14.964 33.9478 15.3747 33.4625 15.664C32.9771 15.944 32.4078 16.084 31.7545 16.084ZM31.9505 14.992C32.4078 14.992 32.8138 14.894 33.1685 14.698C33.5325 14.4927 33.8171 14.2033 34.0225 13.83C34.2371 13.4473 34.3445 12.9993 34.3445 12.486C34.3445 11.9633 34.2371 11.5153 34.0225 11.142C33.8171 10.7687 33.5325 10.484 33.1685 10.288C32.8138 10.092 32.4078 9.994 31.9505 9.994C31.4838 9.994 31.0685 10.0967 30.7045 10.302C30.3498 10.498 30.0698 10.7827 29.8645 11.156C29.6685 11.5293 29.5705 11.9727 29.5705 12.486C29.5705 12.99 29.6685 13.4287 29.8645 13.802C30.0698 14.1753 30.3498 14.4693 30.7045 14.684C31.0685 14.8893 31.4838 14.992 31.9505 14.992ZM42.509 16L39.357 7.52H40.813L43.613 15.2H42.925L45.837 7.52H47.133L49.981 15.2H49.309L52.173 7.52H53.549L50.381 16H48.909L46.237 8.992H46.685L43.981 16H42.509ZM58.6492 16.096C57.7426 16.096 56.9426 15.9093 56.2492 15.536C55.5666 15.1627 55.0332 14.6507 54.6492 14C54.2759 13.3493 54.0892 12.6027 54.0892 11.76C54.0892 10.9173 54.2706 10.1707 54.6332 9.52C55.0066 8.86933 55.5132 8.36267 56.1532 8C56.8039 7.62667 57.5346 7.44 58.3452 7.44C59.1666 7.44 59.8919 7.62133 60.5212 7.984C61.1506 8.34667 61.6412 8.85867 61.9932 9.52C62.3559 10.1707 62.5372 10.9333 62.5372 11.808C62.5372 11.872 62.5319 11.9467 62.5212 12.032C62.5212 12.1173 62.5159 12.1973 62.5052 12.272H55.2892V11.168H61.7052L61.0812 11.552C61.0919 11.008 60.9799 10.5227 60.7452 10.096C60.5106 9.66933 60.1852 9.33867 59.7692 9.104C59.3639 8.85867 58.8892 8.736 58.3452 8.736C57.8119 8.736 57.3372 8.85867 56.9212 9.104C56.5052 9.33867 56.1799 9.67467 55.9452 10.112C55.7106 10.5387 55.5932 11.0293 55.5932 11.584V11.84C55.5932 12.4053 55.7212 12.912 55.9772 13.36C56.2439 13.7973 56.6119 14.1387 57.0812 14.384C57.5506 14.6293 58.0892 14.752 58.6972 14.752C59.1986 14.752 59.6519 14.6667 60.0572 14.496C60.4732 14.3253 60.8359 14.0693 61.1452 13.728L61.9932 14.72C61.6092 15.168 61.1292 15.5093 60.5532 15.744C59.9879 15.9787 59.3532 16.096 58.6492 16.096ZM64.8941 16V6.768C64.8941 5.936 65.1341 5.27467 65.6141 4.784C66.1048 4.28267 66.7981 4.032 67.6941 4.032C68.0248 4.032 68.3394 4.07467 68.6381 4.16C68.9474 4.23467 69.2088 4.35733 69.4221 4.528L68.9581 5.696C68.7981 5.568 68.6168 5.472 68.4141 5.408C68.2114 5.33333 67.9981 5.296 67.7741 5.296C67.3261 5.296 66.9848 5.424 66.7501 5.68C66.5154 5.92533 66.3981 6.29333 66.3981 6.784V7.92L66.4301 8.624V16H64.8941ZM63.4541 8.784V7.52H68.8621V8.784H63.4541ZM70.3181 16V4.128H71.8541V16H70.3181ZM75.1319 19.2C74.7265 19.2 74.3319 19.1307 73.9479 18.992C73.5639 18.864 73.2332 18.672 72.9559 18.416L73.6119 17.264C73.8252 17.4667 74.0599 17.6213 74.3159 17.728C74.5719 17.8347 74.8439 17.888 75.1319 17.888C75.5052 17.888 75.8145 17.792 76.0599 17.6C76.3052 17.408 76.5345 17.0667 76.7479 16.576L77.2759 15.408L77.4359 15.216L80.7639 7.52H82.2679L78.1559 16.848C77.9105 17.4453 77.6332 17.9147 77.3239 18.256C77.0252 18.5973 76.6945 18.8373 76.3319 18.976C75.9692 19.1253 75.5692 19.2 75.1319 19.2ZM77.1479 16.272L73.2759 7.52H74.8759L78.1719 15.072L77.1479 16.272ZM88.6216 16V14.208L88.5416 13.872V10.816C88.5416 10.1653 88.3496 9.664 87.9656 9.312C87.5923 8.94933 87.0269 8.768 86.2696 8.768C85.7683 8.768 85.2776 8.85333 84.7976 9.024C84.3176 9.184 83.9123 9.40267 83.5816 9.68L82.9416 8.528C83.3789 8.176 83.9016 7.90933 84.5096 7.728C85.1283 7.536 85.7736 7.44 86.4456 7.44C87.6083 7.44 88.5043 7.72267 89.1336 8.288C89.7629 8.85333 90.0776 9.71733 90.0776 10.88V16H88.6216ZM85.8376 16.096C85.2083 16.096 84.6536 15.9893 84.1736 15.776C83.7043 15.5627 83.3416 15.2693 83.0856 14.896C82.8296 14.512 82.7016 14.08 82.7016 13.6C82.7016 13.1413 82.8083 12.7253 83.0216 12.352C83.2456 11.9787 83.6029 11.68 84.0936 11.456C84.5949 11.232 85.2669 11.12 86.1096 11.12H88.7976V12.224H86.1736C85.4056 12.224 84.8883 12.352 84.6216 12.608C84.3549 12.864 84.2216 13.1733 84.2216 13.536C84.2216 13.952 84.3869 14.288 84.7176 14.544C85.0483 14.7893 85.5069 14.912 86.0936 14.912C86.6696 14.912 87.1709 14.784 87.5976 14.528C88.0349 14.272 88.3496 13.8987 88.5416 13.408L88.8456 14.464C88.6429 14.9653 88.2856 15.3653 87.7736 15.664C87.2616 15.952 86.6163 16.096 85.8376 16.096ZM96.6961 16.096C95.7894 16.096 94.9894 15.9093 94.2961 15.536C93.6134 15.1627 93.0801 14.6507 92.6961 14C92.3228 13.3493 92.1361 12.6027 92.1361 11.76C92.1361 10.9173 92.3174 10.1707 92.6801 9.52C93.0534 8.86933 93.5601 8.36267 94.2001 8C94.8508 7.62667 95.5814 7.44 96.3921 7.44C97.2134 7.44 97.9388 7.62133 98.5681 7.984C99.1974 8.34667 99.6881 8.85867 100.04 9.52C100.403 10.1707 100.584 10.9333 100.584 11.808C100.584 11.872 100.579 11.9467 100.568 12.032C100.568 12.1173 100.563 12.1973 100.552 12.272H93.3361V11.168H99.7521L99.1281 11.552C99.1388 11.008 99.0268 10.5227 98.7921 10.096C98.5574 9.66933 98.2321 9.33867 97.8161 9.104C97.4108 8.85867 96.9361 8.736 96.3921 8.736C95.8588 8.736 95.3841 8.85867 94.9681 9.104C94.5521 9.33867 94.2268 9.67467 93.9921 10.112C93.7574 10.5387 93.6401 11.0293 93.6401 11.584V11.84C93.6401 12.4053 93.7681 12.912 94.0241 13.36C94.2908 13.7973 94.6588 14.1387 95.1281 14.384C95.5974 14.6293 96.1361 14.752 96.7441 14.752C97.2454 14.752 97.6988 14.6667 98.1041 14.496C98.5201 14.3253 98.8828 14.0693 99.1921 13.728L100.04 14.72C99.6561 15.168 99.1761 15.5093 98.6001 15.744C98.0348 15.9787 97.4001 16.096 96.6961 16.096ZM102.717 16V7.52H104.189V9.824L104.045 9.248C104.28 8.66133 104.674 8.21333 105.229 7.904C105.784 7.59467 106.466 7.44 107.277 7.44V8.928C107.213 8.91733 107.149 8.912 107.085 8.912C107.032 8.912 106.978 8.912 106.925 8.912C106.104 8.912 105.453 9.15733 104.973 9.648C104.493 10.1387 104.253 10.848 104.253 11.776V16H102.717ZM112.724 16.096C111.871 16.096 111.113 15.9093 110.452 15.536C109.791 15.1627 109.268 14.6507 108.884 14C108.5 13.3387 108.308 12.592 108.308 11.76C108.308 10.9173 108.5 10.1707 108.884 9.52C109.268 8.86933 109.791 8.36267 110.452 8C111.113 7.62667 111.871 7.44 112.724 7.44C113.567 7.44 114.319 7.62667 114.98 8C115.652 8.36267 116.175 8.86933 116.548 9.52C116.932 10.16 117.124 10.9067 117.124 11.76C117.124 12.6027 116.932 13.3493 116.548 14C116.175 14.6507 115.652 15.1627 114.98 15.536C114.319 15.9093 113.567 16.096 112.724 16.096ZM112.724 14.752C113.268 14.752 113.753 14.6293 114.18 14.384C114.617 14.1387 114.959 13.792 115.204 13.344C115.449 12.8853 115.572 12.3573 115.572 11.76C115.572 11.152 115.449 10.6293 115.204 10.192C114.959 9.744 114.617 9.39733 114.18 9.152C113.753 8.90667 113.268 8.784 112.724 8.784C112.18 8.784 111.695 8.90667 111.268 9.152C110.841 9.39733 110.5 9.744 110.244 10.192C109.988 10.6293 109.86 11.152 109.86 11.76C109.86 12.3573 109.988 12.8853 110.244 13.344C110.5 13.792 110.841 14.1387 111.268 14.384C111.695 14.6293 112.18 14.752 112.724 14.752Z" fill="#212121"/>
</svg>
