<svg width="116" height="20" viewBox="0 0 116 20" fill="none" xmlns="http://www.w3.org/2000/svg">
<path d="M14.9539 2.08325H2.63892C1.93903 2.08325 1.26781 2.36128 0.772921 2.85617C0.278028 3.35107 0 4.02228 0 4.72217V11.7593C0 12.4592 0.278028 13.1304 0.772921 13.6253C1.26781 14.1202 1.93903 14.3982 2.63892 14.3982H7.91675V16.1575H4.39819C4.1649 16.1575 3.94116 16.2501 3.7762 16.4151C3.61123 16.5801 3.51855 16.8038 3.51855 17.0371C3.51855 17.2704 3.61123 17.4941 3.7762 17.6591C3.94116 17.8241 4.1649 17.9167 4.39819 17.9167H13.1946C13.4279 17.9167 13.6516 17.8241 13.8166 17.6591C13.9815 17.4941 14.0742 17.2704 14.0742 17.0371C14.0742 16.8038 13.9815 16.5801 13.8166 16.4151C13.6516 16.2501 13.4279 16.1575 13.1946 16.1575H9.67603V14.3982H14.9539C15.6537 14.3982 16.325 14.1202 16.8199 13.6253C17.3147 13.1304 17.5928 12.4592 17.5928 11.7593V4.72217C17.5928 4.02228 17.3147 3.35107 16.8199 2.85617C16.325 2.36128 15.6537 2.08325 14.9539 2.08325ZM15.8335 11.7593C15.8335 11.9926 15.7408 12.2163 15.5759 12.3813C15.4109 12.5462 15.1872 12.6389 14.9539 12.6389H2.63892C2.40562 12.6389 2.18188 12.5462 2.01692 12.3813C1.85195 12.2163 1.75928 11.9926 1.75928 11.7593V4.72217C1.75928 4.48887 1.85195 4.26513 2.01692 4.10017C2.18188 3.93521 2.40562 3.84253 2.63892 3.84253H14.9539C15.1872 3.84253 15.4109 3.93521 15.5759 4.10017C15.7408 4.26513 15.8335 4.48887 15.8335 4.72217V11.7593Z" fill="#1273EB"/>
<path d="M29.8488 16L26.1048 4.8H27.7528L31.1928 15.136H30.3608L33.9288 4.8H35.4008L38.8888 15.136H38.0888L41.5768 4.8H43.0968L39.3528 16H37.6728L34.4088 6.416H34.8408L31.5608 16H29.8488ZM47.9654 16.096C47.0587 16.096 46.2587 15.9093 45.5654 15.536C44.8827 15.1627 44.3494 14.6507 43.9654 14C43.5921 13.3493 43.4054 12.6027 43.4054 11.76C43.4054 10.9173 43.5867 10.1707 43.9494 9.52C44.3227 8.86933 44.8294 8.36267 45.4694 8C46.1201 7.62667 46.8507 7.44 47.6614 7.44C48.4827 7.44 49.2081 7.62133 49.8374 7.984C50.4667 8.34667 50.9574 8.85867 51.3094 9.52C51.6721 10.1707 51.8534 10.9333 51.8534 11.808C51.8534 11.872 51.8481 11.9467 51.8374 12.032C51.8374 12.1173 51.8321 12.1973 51.8214 12.272H44.6054V11.168H51.0214L50.3974 11.552C50.4081 11.008 50.2961 10.5227 50.0614 10.096C49.8267 9.66933 49.5014 9.33867 49.0854 9.104C48.6801 8.85867 48.2054 8.736 47.6614 8.736C47.1281 8.736 46.6534 8.85867 46.2374 9.104C45.8214 9.33867 45.4961 9.67467 45.2614 10.112C45.0267 10.5387 44.9094 11.0293 44.9094 11.584V11.84C44.9094 12.4053 45.0374 12.912 45.2934 13.36C45.5601 13.7973 45.9281 14.1387 46.3974 14.384C46.8667 14.6293 47.4054 14.752 48.0134 14.752C48.5147 14.752 48.9681 14.6667 49.3734 14.496C49.7894 14.3253 50.1521 14.0693 50.4614 13.728L51.3094 14.72C50.9254 15.168 50.4454 15.5093 49.8694 15.744C49.3041 15.9787 48.6694 16.096 47.9654 16.096ZM54.2103 16V4.8H62.1143V6.192H55.8103V16H54.2103ZM55.6503 11.472V10.096H61.4263V11.472H55.6503ZM64.1425 16V4.128H65.6785V16H64.1425ZM68.9636 19.2C68.5583 19.2 68.1636 19.1307 67.7796 18.992C67.3956 18.864 67.065 18.672 66.7876 18.416L67.4436 17.264C67.657 17.4667 67.8916 17.6213 68.1476 17.728C68.4036 17.8347 68.6756 17.888 68.9636 17.888C69.337 17.888 69.6463 17.792 69.8916 17.6C70.137 17.408 70.3663 17.0667 70.5796 16.576L71.1076 15.408L71.2676 15.216L74.5956 7.52H76.0996L71.9876 16.848C71.7423 17.4453 71.465 17.9147 71.1556 18.256C70.857 18.5973 70.5263 18.8373 70.1636 18.976C69.801 19.1253 69.401 19.2 68.9636 19.2ZM70.9796 16.272L67.1076 7.52H68.7076L72.0036 15.072L70.9796 16.272ZM77.3699 16.096C77.0712 16.096 76.8152 15.9947 76.6019 15.792C76.3886 15.5787 76.2819 15.312 76.2819 14.992C76.2819 14.672 76.3886 14.4107 76.6019 14.208C76.8152 14.0053 77.0712 13.904 77.3699 13.904C77.6579 13.904 77.9032 14.0053 78.1059 14.208C78.3192 14.4107 78.4259 14.672 78.4259 14.992C78.4259 15.312 78.3192 15.5787 78.1059 15.792C77.9032 15.9947 77.6579 16.096 77.3699 16.096ZM86.0471 16V14.208L85.9671 13.872V10.816C85.9671 10.1653 85.7751 9.664 85.3911 9.312C85.0178 8.94933 84.4525 8.768 83.6951 8.768C83.1938 8.768 82.7031 8.85333 82.2231 9.024C81.7431 9.184 81.3378 9.40267 81.0071 9.68L80.3671 8.528C80.8045 8.176 81.3271 7.90933 81.9351 7.728C82.5538 7.536 83.1991 7.44 83.8711 7.44C85.0338 7.44 85.9298 7.72267 86.5591 8.288C87.1885 8.85333 87.5031 9.71733 87.5031 10.88V16H86.0471ZM83.2631 16.096C82.6338 16.096 82.0791 15.9893 81.5991 15.776C81.1298 15.5627 80.7671 15.2693 80.5111 14.896C80.2551 14.512 80.1271 14.08 80.1271 13.6C80.1271 13.1413 80.2338 12.7253 80.4471 12.352C80.6711 11.9787 81.0285 11.68 81.5191 11.456C82.0205 11.232 82.6925 11.12 83.5351 11.12H86.2231V12.224H83.5991C82.8311 12.224 82.3138 12.352 82.0471 12.608C81.7805 12.864 81.6471 13.1733 81.6471 13.536C81.6471 13.952 81.8125 14.288 82.1431 14.544C82.4738 14.7893 82.9325 14.912 83.5191 14.912C84.0951 14.912 84.5965 14.784 85.0231 14.528C85.4605 14.272 85.7751 13.8987 85.9671 13.408L86.2711 14.464C86.0685 14.9653 85.7111 15.3653 85.1991 15.664C84.6871 15.952 84.0418 16.096 83.2631 16.096ZM94.1216 16.096C93.215 16.096 92.415 15.9093 91.7216 15.536C91.039 15.1627 90.5056 14.6507 90.1216 14C89.7483 13.3493 89.5616 12.6027 89.5616 11.76C89.5616 10.9173 89.743 10.1707 90.1056 9.52C90.479 8.86933 90.9856 8.36267 91.6256 8C92.2763 7.62667 93.007 7.44 93.8176 7.44C94.639 7.44 95.3643 7.62133 95.9936 7.984C96.623 8.34667 97.1136 8.85867 97.4656 9.52C97.8283 10.1707 98.0096 10.9333 98.0096 11.808C98.0096 11.872 98.0043 11.9467 97.9936 12.032C97.9936 12.1173 97.9883 12.1973 97.9776 12.272H90.7616V11.168H97.1776L96.5536 11.552C96.5643 11.008 96.4523 10.5227 96.2176 10.096C95.983 9.66933 95.6576 9.33867 95.2416 9.104C94.8363 8.85867 94.3616 8.736 93.8176 8.736C93.2843 8.736 92.8096 8.85867 92.3936 9.104C91.9776 9.33867 91.6523 9.67467 91.4176 10.112C91.183 10.5387 91.0656 11.0293 91.0656 11.584V11.84C91.0656 12.4053 91.1936 12.912 91.4496 13.36C91.7163 13.7973 92.0843 14.1387 92.5536 14.384C93.023 14.6293 93.5616 14.752 94.1696 14.752C94.671 14.752 95.1243 14.6667 95.5296 14.496C95.9456 14.3253 96.3083 14.0693 96.6176 13.728L97.4656 14.72C97.0816 15.168 96.6016 15.5093 96.0256 15.744C95.4603 15.9787 94.8256 16.096 94.1216 16.096ZM100.143 16V7.52H101.615V9.824L101.471 9.248C101.705 8.66133 102.1 8.21333 102.655 7.904C103.209 7.59467 103.892 7.44 104.703 7.44V8.928C104.639 8.91733 104.575 8.912 104.511 8.912C104.457 8.912 104.404 8.912 104.351 8.912C103.529 8.912 102.879 9.15733 102.399 9.648C101.919 10.1387 101.679 10.848 101.679 11.776V16H100.143ZM110.15 16.096C109.296 16.096 108.539 15.9093 107.878 15.536C107.216 15.1627 106.694 14.6507 106.31 14C105.926 13.3387 105.734 12.592 105.734 11.76C105.734 10.9173 105.926 10.1707 106.31 9.52C106.694 8.86933 107.216 8.36267 107.878 8C108.539 7.62667 109.296 7.44 110.15 7.44C110.992 7.44 111.744 7.62667 112.406 8C113.078 8.36267 113.6 8.86933 113.974 9.52C114.358 10.16 114.55 10.9067 114.55 11.76C114.55 12.6027 114.358 13.3493 113.974 14C113.6 14.6507 113.078 15.1627 112.406 15.536C111.744 15.9093 110.992 16.096 110.15 16.096ZM110.15 14.752C110.694 14.752 111.179 14.6293 111.606 14.384C112.043 14.1387 112.384 13.792 112.63 13.344C112.875 12.8853 112.998 12.3573 112.998 11.76C112.998 11.152 112.875 10.6293 112.63 10.192C112.384 9.744 112.043 9.39733 111.606 9.152C111.179 8.90667 110.694 8.784 110.15 8.784C109.606 8.784 109.12 8.90667 108.694 9.152C108.267 9.39733 107.926 9.744 107.67 10.192C107.414 10.6293 107.286 11.152 107.286 11.76C107.286 12.3573 107.414 12.8853 107.67 13.344C107.926 13.792 108.267 14.1387 108.694 14.384C109.12 14.6293 109.606 14.752 110.15 14.752Z" fill="#212121"/>
</svg>
