<svg width="18" height="18" viewBox="0 0 18 18" fill="none" xmlns="http://www.w3.org/2000/svg">
<path d="M13.481 3.55739C13.2819 3.55739 13.0872 3.61645 12.9216 3.72709C12.756 3.83774 12.627 3.995 12.5507 4.179C12.4745 4.36299 12.4546 4.56545 12.4934 4.76078C12.5323 4.95611 12.6282 5.13553 12.769 5.27636C12.9098 5.41718 13.0893 5.51308 13.2846 5.55194C13.4799 5.59079 13.6824 5.57085 13.8664 5.49464C14.0504 5.41842 14.2076 5.28936 14.3183 5.12377C14.4289 4.95818 14.488 4.76349 14.488 4.56434C14.488 4.29728 14.3819 4.04116 14.1931 3.85232C14.0042 3.66348 13.7481 3.55739 13.481 3.55739ZM17.341 5.58807C17.3247 4.89185 17.1943 4.20301 16.955 3.549C16.7417 2.98941 16.4096 2.48271 15.9816 2.06375C15.5661 1.63364 15.0582 1.30365 14.4964 1.09876C13.8441 0.85219 13.1545 0.718811 12.4573 0.70437C11.5678 0.654022 11.2825 0.654022 9.00012 0.654022C6.71771 0.654022 6.4324 0.654022 5.54293 0.70437C4.84575 0.718811 4.15615 0.85219 3.50386 1.09876C2.94306 1.30573 2.4356 1.63543 2.01861 2.06375C1.5885 2.47927 1.25852 2.98715 1.05362 3.549C0.807055 4.20129 0.673675 4.89088 0.659234 5.58807C0.608887 6.47754 0.608887 6.76284 0.608887 9.04526C0.608887 11.3277 0.608887 11.613 0.659234 12.5024C0.673675 13.1996 0.807055 13.8892 1.05362 14.5415C1.25852 15.1034 1.5885 15.6112 2.01861 16.0268C2.4356 16.4551 2.94306 16.7848 3.50386 16.9918C4.15615 17.2383 4.84575 17.3717 5.54293 17.3861C6.4324 17.4365 6.71771 17.4365 9.00012 17.4365C11.2825 17.4365 11.5678 17.4365 12.4573 17.3861C13.1545 17.3717 13.8441 17.2383 14.4964 16.9918C15.0582 16.7869 15.5661 16.4569 15.9816 16.0268C16.4115 15.6094 16.7438 15.1022 16.955 14.5415C17.1943 13.8875 17.3247 13.1987 17.341 12.5024C17.341 11.613 17.3914 11.3277 17.3914 9.04526C17.3914 6.76284 17.3914 6.47754 17.341 5.58807ZM15.8306 12.4018C15.8245 12.9344 15.728 13.4622 15.5453 13.9625C15.4113 14.3277 15.1961 14.6577 14.9159 14.9275C14.6438 15.2048 14.3145 15.4196 13.951 15.5569C13.4506 15.7396 12.9228 15.836 12.3902 15.8422C11.5511 15.8841 11.2406 15.8925 9.03369 15.8925C6.82679 15.8925 6.51632 15.8925 5.67719 15.8422C5.12412 15.8525 4.57341 15.7674 4.04929 15.5904C3.70171 15.4462 3.38752 15.2319 3.12626 14.9611C2.84774 14.6915 2.63524 14.3613 2.50531 13.9961C2.30044 13.4885 2.18681 12.9488 2.16966 12.4018C2.16966 11.5626 2.11931 11.2522 2.11931 9.04526C2.11931 6.83836 2.11931 6.52789 2.16966 5.68876C2.17342 5.14422 2.27283 4.60457 2.46335 4.09443C2.61107 3.74024 2.83782 3.42452 3.12626 3.17139C3.38119 2.88288 3.69626 2.65373 4.04929 2.50009C4.56078 2.31552 5.09987 2.21905 5.64363 2.21479C6.48275 2.21479 6.79323 2.16444 9.00012 2.16444C11.207 2.16444 11.5175 2.16444 12.3566 2.21479C12.8893 2.2209 13.417 2.31737 13.9174 2.50009C14.2987 2.64161 14.641 2.8717 14.9159 3.17139C15.1909 3.42915 15.4058 3.74429 15.5453 4.09443C15.7318 4.6054 15.8283 5.14483 15.8306 5.68876C15.8725 6.52789 15.8809 6.83836 15.8809 9.04526C15.8809 11.2522 15.8725 11.5626 15.8306 12.4018ZM9.00012 4.74055C8.14909 4.74221 7.31765 4.99609 6.61085 5.4701C5.90405 5.94412 5.35361 6.617 5.02908 7.40373C4.70456 8.19045 4.6205 9.05572 4.78755 9.8902C4.95459 10.7247 5.36524 11.4909 5.96759 12.0921C6.56995 12.6933 7.33699 13.1024 8.17179 13.2679C9.00659 13.4333 9.87169 13.3475 10.6578 13.0215C11.4439 12.6954 12.1157 12.1437 12.5883 11.4359C13.061 10.7282 13.3132 9.89629 13.3132 9.04526C13.3143 8.47894 13.2035 7.91798 12.987 7.39466C12.7705 6.87135 12.4527 6.39599 12.0519 5.99593C11.6511 5.59587 11.1751 5.279 10.6513 5.06356C10.1276 4.84811 9.56644 4.73834 9.00012 4.74055ZM9.00012 11.8395C8.44747 11.8395 7.90722 11.6757 7.4477 11.3686C6.98819 11.0616 6.63004 10.6252 6.41854 10.1146C6.20705 9.60399 6.15171 9.04216 6.25953 8.50012C6.36735 7.95808 6.63348 7.46019 7.02427 7.0694C7.41505 6.67862 7.91295 6.41249 8.45499 6.30467C8.99702 6.19685 9.55886 6.25219 10.0694 6.46368C10.58 6.67517 11.0164 7.03332 11.3235 7.49284C11.6305 7.95236 11.7944 8.4926 11.7944 9.04526C11.7944 9.41221 11.7221 9.77557 11.5817 10.1146C11.4413 10.4536 11.2355 10.7616 10.976 11.0211C10.7165 11.2806 10.4085 11.4864 10.0694 11.6268C9.73043 11.7673 9.36707 11.8395 9.00012 11.8395Z" fill="#1273EB"/>
</svg>
