<svg width="17" height="17" viewBox="0 0 17 17" fill="none" xmlns="http://www.w3.org/2000/svg">
<path d="M12.8722 2.90337C12.673 2.90337 12.4783 2.96242 12.3127 3.07307C12.1471 3.18371 12.0181 3.34098 11.9419 3.52497C11.8656 3.70897 11.8457 3.91143 11.8846 4.10676C11.9234 4.30209 12.0193 4.48151 12.1601 4.62234C12.301 4.76316 12.4804 4.85906 12.6757 4.89792C12.871 4.93677 13.0735 4.91683 13.2575 4.84061C13.4415 4.7644 13.5988 4.63534 13.7094 4.46975C13.82 4.30415 13.8791 4.10947 13.8791 3.91032C13.8791 3.64326 13.773 3.38714 13.5842 3.1983C13.3953 3.00946 13.1392 2.90337 12.8722 2.90337ZM16.7321 4.93405C16.7158 4.23782 16.5854 3.54899 16.3461 2.89498C16.1328 2.33539 15.8007 1.82868 15.3727 1.40973C14.9572 0.979615 14.4493 0.64963 13.8875 0.444735C13.2352 0.198168 12.5456 0.0647887 11.8484 0.0503474C10.959 -4.68897e-08 10.6737 0 8.39124 0C6.10882 0 5.82352 -4.68897e-08 4.93405 0.0503474C4.23686 0.0647887 3.54726 0.198168 2.89498 0.444735C2.33417 0.651704 1.82672 0.981406 1.40973 1.40973C0.979615 1.82524 0.64963 2.33313 0.444735 2.89498C0.198168 3.54726 0.0647887 4.23686 0.0503474 4.93405C-4.68897e-08 5.82352 0 6.10882 0 8.39124C0 10.6737 -4.68897e-08 10.959 0.0503474 11.8484C0.0647887 12.5456 0.198168 13.2352 0.444735 13.8875C0.64963 14.4493 0.979615 14.9572 1.40973 15.3727C1.82672 15.8011 2.33417 16.1308 2.89498 16.3377C3.54726 16.5843 4.23686 16.7177 4.93405 16.7321C5.82352 16.7825 6.10882 16.7825 8.39124 16.7825C10.6737 16.7825 10.959 16.7825 11.8484 16.7321C12.5456 16.7177 13.2352 16.5843 13.8875 16.3377C14.4493 16.1328 14.9572 15.8029 15.3727 15.3727C15.8026 14.9553 16.135 14.4482 16.3461 13.8875C16.5854 13.2335 16.7158 12.5446 16.7321 11.8484C16.7321 10.959 16.7825 10.6737 16.7825 8.39124C16.7825 6.10882 16.7825 5.82352 16.7321 4.93405ZM15.2217 11.7477C15.2156 12.2804 15.1191 12.8081 14.9364 13.3085C14.8024 13.6737 14.5872 14.0036 14.3071 14.2735C14.0349 14.5508 13.7056 14.7656 13.3421 14.9028C12.8417 15.0856 12.3139 15.182 11.7813 15.1881C10.9422 15.2301 10.6317 15.2385 8.4248 15.2385C6.21791 15.2385 5.90743 15.2385 5.06831 15.1881C4.51523 15.1985 3.96452 15.1133 3.44041 14.9364C3.09283 14.7921 2.77864 14.5779 2.51737 14.3071C2.23886 14.0375 2.02635 13.7072 1.89642 13.3421C1.69155 12.8345 1.57792 12.2948 1.56077 11.7477C1.56077 10.9086 1.51042 10.5981 1.51042 8.39124C1.51042 6.18434 1.51042 5.87386 1.56077 5.03474C1.56453 4.4902 1.66394 3.95055 1.85446 3.44041C2.00219 3.08622 2.22893 2.7705 2.51737 2.51737C2.77231 2.22885 3.08738 1.99971 3.44041 1.84607C3.9519 1.6615 4.49099 1.56503 5.03474 1.56077C5.87386 1.56077 6.18434 1.51042 8.39124 1.51042C10.5981 1.51042 10.9086 1.51042 11.7477 1.56077C12.2804 1.56688 12.8081 1.66335 13.3085 1.84607C13.6898 1.98759 14.0321 2.21767 14.3071 2.51737C14.582 2.77513 14.7969 3.09027 14.9364 3.44041C15.1229 3.95138 15.2194 4.4908 15.2217 5.03474C15.2637 5.87386 15.272 6.18434 15.272 8.39124C15.272 10.5981 15.2637 10.9086 15.2217 11.7477ZM8.39124 4.08653C7.54021 4.08819 6.70876 4.34207 6.00196 4.81608C5.29516 5.29009 4.74472 5.96298 4.4202 6.7497C4.09567 7.53643 4.01162 8.4017 4.17866 9.23617C4.34571 10.0707 4.75635 10.8369 5.35871 11.4381C5.96106 12.0393 6.7281 12.4484 7.5629 12.6138C8.3977 12.7792 9.2628 12.6935 10.0489 12.3675C10.835 12.0414 11.5068 11.4896 11.9794 10.7819C12.4521 10.0742 12.7043 9.24227 12.7043 8.39124C12.7054 7.82491 12.5946 7.26396 12.3781 6.74064C12.1616 6.21732 11.8439 5.74196 11.443 5.3419C11.0422 4.94184 10.5662 4.62498 10.0425 4.40953C9.51872 4.19409 8.95755 4.08432 8.39124 4.08653ZM8.39124 11.1855C7.83858 11.1855 7.29833 11.0216 6.83882 10.7146C6.3793 10.4076 6.02115 9.97115 5.80966 9.46056C5.59816 8.94997 5.54283 8.38814 5.65065 7.8461C5.75846 7.30406 6.02459 6.80617 6.41538 6.41538C6.80617 6.02459 7.30406 5.75846 7.8461 5.65065C8.38814 5.54283 8.94997 5.59816 9.46056 5.80966C9.97115 6.02115 10.4076 6.3793 10.7146 6.83882C11.0216 7.29833 11.1855 7.83858 11.1855 8.39124C11.1855 8.75819 11.1132 9.12154 10.9728 9.46056C10.8324 9.79958 10.6266 10.1076 10.3671 10.3671C10.1076 10.6266 9.79958 10.8324 9.46056 10.9728C9.12154 11.1132 8.75819 11.1855 8.39124 11.1855Z" fill="#1273EB"/>
</svg>
