<svg width="16" height="21" viewBox="0 0 16 21" fill="none" xmlns="http://www.w3.org/2000/svg">
<path d="M8 0.0451965C5.87827 0.0451965 3.84344 0.888051 2.34315 2.38834C0.842855 3.88863 0 5.92346 0 8.0452C0 13.4452 7.05 19.5452 7.35 19.8052C7.53113 19.9601 7.76165 20.0453 8 20.0453C8.23835 20.0453 8.46887 19.9601 8.65 19.8052C9 19.5452 16 13.4452 16 8.0452C16 5.92346 15.1571 3.88863 13.6569 2.38834C12.1566 0.888051 10.1217 0.0451965 8 0.0451965ZM8 17.6952C5.87 15.6952 2 11.3852 2 8.0452C2 6.4539 2.63214 4.92777 3.75736 3.80256C4.88258 2.67734 6.4087 2.0452 8 2.0452C9.5913 2.0452 11.1174 2.67734 12.2426 3.80256C13.3679 4.92777 14 6.4539 14 8.0452C14 11.3852 10.13 15.7052 8 17.6952ZM8 4.0452C7.20887 4.0452 6.43552 4.27979 5.77772 4.71932C5.11992 5.15884 4.60723 5.78356 4.30448 6.51446C4.00173 7.24537 3.92252 8.04963 4.07686 8.82556C4.2312 9.60148 4.61216 10.3142 5.17157 10.8736C5.73098 11.433 6.44371 11.814 7.21964 11.9683C7.99556 12.1227 8.79983 12.0435 9.53073 11.7407C10.2616 11.438 10.8864 10.9253 11.3259 10.2675C11.7654 9.60968 12 8.83632 12 8.0452C12 6.98433 11.5786 5.96691 10.8284 5.21677C10.0783 4.46662 9.06087 4.0452 8 4.0452ZM8 10.0452C7.60444 10.0452 7.21776 9.9279 6.88886 9.70814C6.55996 9.48837 6.30362 9.17601 6.15224 8.81056C6.00087 8.44511 5.96126 8.04298 6.03843 7.65502C6.1156 7.26705 6.30608 6.91069 6.58579 6.63098C6.86549 6.35128 7.22186 6.1608 7.60982 6.08363C7.99778 6.00646 8.39991 6.04606 8.76537 6.19744C9.13082 6.34881 9.44318 6.60516 9.66294 6.93406C9.8827 7.26295 10 7.64963 10 8.0452C10 8.57563 9.78929 9.08434 9.41421 9.45941C9.03914 9.83448 8.53043 10.0452 8 10.0452Z" fill="#1273EB"/>
</svg>
