<svg width="433" height="99" viewBox="0 0 433 99" fill="none" xmlns="http://www.w3.org/2000/svg">
<path d="M226.416 69.0075L209.408 18.8367H201.317L183.993 68.7548L167.303 18.8367H158.229L178.853 80.2233H188.277L205.157 31.1583L221.91 80.2233H231.175L251.799 18.8367H243.423L226.416 69.0075Z" fill="#05060F"/>
<path d="M288.719 36.1673C285.262 34.1739 281.264 33.1931 276.728 33.1931C272.192 33.1931 268.258 34.2056 264.705 36.2306C261.152 38.2556 258.36 41.0401 256.33 44.6155C254.3 48.191 253.285 52.2727 253.285 56.924C253.285 61.5752 254.332 65.6569 256.394 69.2324C258.487 72.8078 261.406 75.6239 265.213 77.6489C269.019 79.7056 273.397 80.7181 278.378 80.7181C282.248 80.7181 285.769 80.0853 288.91 78.788C292.05 77.4907 294.683 75.6239 296.777 73.1559L292.114 67.7136C290.401 69.5804 288.434 71.0043 286.182 71.9219C283.929 72.8711 281.423 73.3141 278.663 73.3141C275.301 73.3141 272.35 72.6496 269.781 71.2891C267.179 69.9285 265.181 68.0617 263.753 65.6253C262.675 63.8217 262.04 61.86 261.755 59.7084H299.664C299.727 59.297 299.759 58.8541 299.791 58.3794C299.823 57.9048 299.823 57.4935 299.823 57.1454C299.823 52.336 298.839 48.1277 296.872 44.5522C294.905 40.9452 292.177 38.1607 288.719 36.1673ZM268.892 42.2741C271.177 40.9451 273.81 40.3123 276.728 40.3123C279.647 40.3123 282.343 40.9768 284.595 42.2741C286.848 43.603 288.624 45.4382 289.925 47.7796C290.908 49.5515 291.479 51.5133 291.701 53.6649H261.691C261.945 51.5449 262.548 49.5832 263.5 47.8113C264.8 45.4382 266.577 43.603 268.861 42.2741H268.892Z" fill="#05060F"/>
<path d="M312.695 80.2232H321.523V55.3906H352.452V47.8713H321.523V26.4508H356.262V18.8367H312.695V80.2232Z" fill="#05060F"/>
<path d="M376.065 18.8367H367.154V80.2232H376.065V18.8367Z" fill="#05060F"/>
<path d="M424.79 33.6883L408.75 71.0076L392.552 33.6883H383.775L404.267 80.274L402.783 83.5744C401.614 86.2718 400.351 88.1441 399.025 89.2231C397.668 90.2703 395.994 90.8098 393.942 90.8098C392.363 90.8098 390.879 90.5241 389.458 89.9212C388.069 89.3182 386.774 88.4932 385.606 87.3825L382.006 93.7293C383.522 95.1256 385.353 96.2046 387.437 96.9344C389.521 97.6643 391.7 98.0451 393.91 98.0451C396.31 98.0451 398.489 97.6643 400.478 96.8392C402.467 96.0459 404.298 94.7131 405.972 92.8407C407.645 90.9684 409.161 88.3662 410.487 85.0976L433 33.7517H424.759L424.79 33.6883Z" fill="#05060F"/>
<g clip-path="url(#clip0_9_92)">
<path d="M133.891 6.72232L107.63 94.118C106.967 96.3252 104.936 97.8366 102.631 97.8366H87.9008C85.998 97.8284 84.1278 97.3228 82.4805 96.3633C80.8332 95.4064 79.4659 94.0283 78.52 92.3728L73.9505 84.3892C72.9257 82.5952 72.3902 80.5727 72.3902 78.5069V62.1373C72.3848 61.8438 72.4663 61.5583 72.6158 61.3055C72.7708 61.0582 72.9882 60.8543 73.2492 60.7238C73.5102 60.5906 73.8037 60.5335 74.0946 60.558C74.3882 60.5825 74.6654 60.6885 74.9019 60.8624L99.8259 78.3872C99.9835 78.5069 100.166 78.5938 100.356 78.6346C100.549 78.6808 100.747 78.6863 100.943 78.6428C101.136 78.602 101.318 78.5232 101.481 78.4036C101.639 78.2867 101.769 78.1399 101.87 77.9659L104.776 72.9534C104.999 72.5647 105.091 72.1134 105.029 71.6649C104.969 71.2218 104.768 70.8087 104.45 70.4906L74.6111 41.9704C73.907 41.2663 73.3498 40.4291 72.9638 39.5103C72.5832 38.5915 72.3848 37.6021 72.3848 36.6045V23.9563C72.3848 21.4174 70.5853 15.4725 68.1959 14.1161C67.886 13.9502 67.5435 13.8497 67.1901 13.8252C67.1466 13.8225 67.1004 13.8225 67.0569 13.8225C67.0135 13.8225 66.9672 13.8225 66.9237 13.8252C66.5704 13.8497 66.2279 13.9502 65.918 14.1161C63.5286 15.4725 61.7291 21.4174 61.7291 23.9563V36.6045C61.7291 37.6021 61.5307 38.5915 61.1501 39.5103C60.7641 40.4291 60.2069 41.2663 59.5028 41.9704L29.6642 70.4906C29.3461 70.8087 29.145 71.2218 29.0852 71.6649C29.0227 72.1134 29.1151 72.5647 29.338 72.9534L32.2438 77.9659C32.3444 78.1399 32.4749 78.2867 32.6326 78.4036C32.7957 78.5232 32.9778 78.602 33.1708 78.6428C33.3665 78.6863 33.5649 78.6808 33.7579 78.6346C33.9482 78.5938 34.1303 78.5069 34.288 78.3872L59.212 60.8624C59.4485 60.6885 59.7257 60.5825 60.0193 60.558C60.3102 60.5335 60.6037 60.5906 60.8647 60.7238C61.1256 60.8543 61.3431 61.0582 61.498 61.3055C61.6475 61.5583 61.7291 61.8438 61.7237 62.1373V78.5069C61.7237 80.5727 61.1882 82.5952 60.1634 84.3892L55.5939 92.3728C54.648 94.0283 53.2807 95.4064 51.6334 96.3633C49.9861 97.3228 48.1159 97.8284 46.2131 97.8366H31.4827C29.1776 97.8366 27.1471 96.3252 26.4838 94.118L0.222423 6.72232C-0.783343 3.37339 1.72564 0 5.22407 0H24.5293C26.8263 0 28.8569 1.50321 29.5228 3.70231L41.1544 42.0057L56.1675 3.3299C56.9476 1.32109 58.8803 0 61.0359 0H73.0779C75.2335 0 77.1663 1.32109 77.9464 3.3299L92.9595 42.0057L104.591 3.70231C105.257 1.50321 107.288 0 109.585 0H128.89C132.388 0 134.897 3.37339 133.891 6.72232Z" fill="#1273EB"/>
</g>
<defs>
<clipPath id="clip0_9_92">
<rect width="134.118" height="97.8366" fill="white"/>
</clipPath>
</defs>
</svg>
