<svg width="452" height="120" viewBox="0 0 452 120" fill="none" xmlns="http://www.w3.org/2000/svg">
<path d="M76.2237 19.9471C75.3673 18.4479 74.1306 17.201 72.6385 16.3324C71.1464 15.4639 69.4516 15.0043 67.7252 15H52.2277C50.5012 15.0041 48.8063 15.4635 47.3142 16.3321C45.822 17.2007 44.5854 18.4477 43.7292 19.9471L11.3122 76.5874C10.4523 78.0935 10 79.7977 10 81.5319C10 83.2662 10.4523 84.9706 11.3122 86.4766L19.0934 100.048C19.9507 101.546 21.1876 102.792 22.6796 103.66C24.1716 104.528 25.8659 104.988 27.5919 104.993H41.1047C42.8311 104.988 44.5257 104.528 46.0178 103.66C47.5099 102.791 48.7466 101.544 49.6032 100.045L53.7425 92.8111C54.6697 91.1888 55.1573 89.3525 55.1572 87.4839V72.6527C55.1593 72.3876 55.0875 72.1272 54.9498 71.9008C54.812 71.6743 54.6138 71.4909 54.3775 71.3709C54.1412 71.2509 53.8761 71.1993 53.612 71.2217C53.3479 71.2441 53.0953 71.3397 52.8826 71.4978L30.304 87.3741C30.1616 87.4833 29.9974 87.5605 29.8225 87.6006C29.6476 87.6407 29.4661 87.6427 29.2904 87.6064C29.1147 87.5701 28.9488 87.4965 28.8041 87.3904C28.6594 87.2843 28.5392 87.1482 28.4518 86.9915L25.8197 82.4518C25.6164 82.0991 25.5351 81.6893 25.5884 81.2857C25.6417 80.8821 25.8267 80.5074 26.1147 80.2196L53.1426 54.3818C53.782 53.7443 54.2893 52.9869 54.6354 52.153C54.9815 51.3191 55.1598 50.425 55.1598 49.5221V38.0605C55.1598 35.7582 56.792 30.3738 58.9541 29.1439C59.2366 28.9933 59.5479 28.9046 59.8673 28.8839C60.1867 28.8632 60.5068 28.9109 60.8063 29.0238C63.0884 29.9662 64.8456 35.6707 64.8456 38.0605V49.5221C64.8458 50.425 65.024 51.3189 65.3701 52.1528C65.7163 52.9867 66.2235 53.7443 66.8628 54.3818L91.8936 80.2196C92.1811 80.5077 92.3656 80.8826 92.4185 81.2861C92.4713 81.6897 92.3896 82.0994 92.186 82.4518L89.5564 86.9915C89.4672 87.1464 89.3463 87.2805 89.2015 87.3852C89.0567 87.4899 88.8912 87.5628 88.7162 87.5989C88.5413 87.6351 88.3606 87.6336 88.1862 87.5948C88.0117 87.5561 87.8475 87.4809 87.7042 87.3741L67.1228 71.4978C66.91 71.3397 66.6574 71.2441 66.3934 71.2217C66.1293 71.1993 65.8642 71.2509 65.6279 71.3709C65.3916 71.4909 65.1934 71.6743 65.0556 71.9008C64.9179 72.1272 64.846 72.3876 64.8481 72.6527V87.4889C64.8483 89.3583 65.3359 91.1953 66.2628 92.8185L70.4047 100.055C71.2614 101.554 72.4982 102.801 73.9903 103.669C75.4824 104.537 77.177 104.996 78.9032 105H92.316C94.0428 104.994 95.738 104.536 97.2326 103.671C98.7273 102.806 99.9692 101.565 100.835 100.07L108.671 86.5566C109.537 85.0563 109.995 83.3555 110 81.6232C110.005 79.8909 109.556 78.1874 108.698 76.6823L76.2237 19.9471Z" fill="#377ae4"/>
<path d="M193.2 89.04H197.6L171.84 33.04H167.76L142 89.04H146.4L153.52 73.28H186L193.2 89.04ZM155.12 69.84L169.76 37.52L184.48 69.84H155.12Z" fill="black"/>
<path d="M233.817 47.28L217.017 84.64L200.377 47.28H196.137L214.937 89.04H219.017L237.897 47.28H233.817Z" fill="black"/>
<path d="M248.643 37.12C250.483 37.12 251.923 35.68 251.923 33.84C251.923 32.08 250.483 30.64 248.643 30.64C246.803 30.64 245.363 32.16 245.363 33.92C245.363 35.68 246.803 37.12 248.643 37.12ZM246.643 89.04H250.643V47.28H246.643V89.04Z" fill="black"/>
<path d="M281.582 46.96C275.102 46.96 269.022 49.2 264.862 52.88L266.862 55.76C270.302 52.64 275.502 50.48 281.262 50.48C289.422 50.48 293.662 54.64 293.662 62.4V65.76H279.342C267.742 65.76 263.742 71.12 263.742 77.44C263.742 84.56 269.422 89.36 278.782 89.36C286.062 89.36 291.182 86.4 293.822 81.6V89.04H297.662V62.56C297.662 52.24 291.902 46.96 281.582 46.96ZM279.342 86.08C271.982 86.08 267.742 82.72 267.742 77.28C267.742 72.48 270.782 68.88 279.422 68.88H293.662V76.72C291.262 82.72 286.382 86.08 279.342 86.08Z" fill="black"/>
<path d="M324.703 89.36C335.343 89.36 341.183 84.72 341.183 77.92C341.183 62 313.503 70.88 313.503 58.32C313.503 53.84 317.103 50.48 325.263 50.48C329.743 50.48 334.303 51.68 337.823 54.24L339.663 51.04C336.383 48.56 330.623 46.96 325.343 46.96C314.783 46.96 309.503 52.08 309.503 58.4C309.503 74.8 337.183 65.84 337.183 78C337.183 82.72 333.663 85.84 324.863 85.84C318.703 85.84 313.023 83.52 309.823 80.8L307.983 84C311.263 87.04 317.823 89.36 324.703 89.36Z" fill="black"/>
<path d="M354.346 37.12C356.186 37.12 357.626 35.68 357.626 33.84C357.626 32.08 356.186 30.64 354.346 30.64C352.506 30.64 351.066 32.16 351.066 33.92C351.066 35.68 352.506 37.12 354.346 37.12ZM352.346 89.04H356.346V47.28H352.346V89.04Z" fill="black"/>
<path d="M425.205 46.96C417.125 46.96 411.045 50.96 408.325 57.04C406.085 50.4 400.565 46.96 393.045 46.96C385.445 46.96 379.765 50.4 377.045 56.24V47.28H373.205V89.04H377.205V66.8C377.205 56.88 383.045 50.56 392.485 50.56C400.645 50.56 405.525 55.52 405.525 64.96V89.04H409.525V66.8C409.525 56.88 415.365 50.56 424.805 50.56C432.965 50.56 437.845 55.52 437.845 64.96V89.04H441.845V64.64C441.845 52.96 435.285 46.96 425.205 46.96Z" fill="black"/>
</svg>
