<svg width="880" height="240" viewBox="0 0 880 240" fill="none" xmlns="http://www.w3.org/2000/svg">
<path d="M501.824 146.843L470.691 55H455.879L424.165 146.381L393.612 55H377L414.755 167.375H432.006L462.907 77.556L493.576 167.375H510.537L548.292 55H532.957L501.824 146.843Z" fill="#05060F"/>
<path d="M615.878 86.7255C609.548 83.0764 602.231 81.2808 593.927 81.2808C585.622 81.2808 578.421 83.1343 571.917 86.8413C565.413 90.5484 560.302 95.6456 556.586 102.191C552.869 108.736 551.011 116.208 551.011 124.723C551.011 133.237 552.927 140.71 556.702 147.255C560.535 153.8 565.877 158.955 572.846 162.662C579.815 166.427 587.829 168.281 596.946 168.281C604.031 168.281 610.477 167.122 616.226 164.747C621.976 162.373 626.796 158.955 630.629 154.437L622.092 144.475C618.956 147.892 615.355 150.498 611.232 152.178C607.109 153.916 602.521 154.727 597.469 154.727C591.313 154.727 585.913 153.51 581.209 151.02C576.447 148.529 572.788 145.112 570.175 140.652C568.2 137.35 567.039 133.759 566.516 129.82H635.913C636.029 129.067 636.087 128.256 636.145 127.387C636.204 126.518 636.204 125.765 636.204 125.128C636.204 116.324 634.403 108.62 630.803 102.075C627.202 95.4718 622.208 90.3746 615.878 86.7255ZM579.583 97.9046C583.764 95.4718 588.584 94.3134 593.927 94.3134C599.269 94.3134 604.205 95.5298 608.329 97.9046C612.452 100.337 615.704 103.697 618.085 107.983C619.885 111.227 620.93 114.818 621.337 118.757H566.4C566.865 114.876 567.968 111.285 569.71 108.041C572.091 103.697 575.343 100.337 579.524 97.9046H579.583Z" fill="#05060F"/>
<path d="M659.768 167.375H675.928V121.916H732.547V108.151H675.928V68.9384H739.523V55H659.768V167.375Z" fill="#05060F"/>
<path d="M775.774 55H759.461V167.375H775.774V55Z" fill="#05060F"/>
<path d="M864.971 82.1875L835.608 150.505L805.956 82.1875H789.887L827.4 167.468L824.684 173.51C822.545 178.448 820.233 181.875 817.805 183.85C815.32 185.767 812.256 186.755 808.499 186.755C805.609 186.755 802.893 186.232 800.292 185.128C797.748 184.024 795.378 182.514 793.24 180.481L786.65 192.099C789.425 194.655 792.777 196.631 796.592 197.967C800.407 199.303 804.395 200 808.442 200C812.835 200 816.823 199.303 820.464 197.792C824.106 196.34 827.458 193.9 830.522 190.473C833.585 187.045 836.36 182.282 838.787 176.298L880 82.3037H864.914L864.971 82.1875Z" fill="#05060F"/>
<g clip-path="url(#clip0_9821_1098)">
<path d="M328.446 16.4903L264.025 230.878C262.398 236.292 257.417 240 251.763 240H215.628C210.96 239.98 206.373 238.74 202.332 236.386C198.291 234.039 194.937 230.658 192.616 226.597L181.407 207.013C178.893 202.612 177.579 197.651 177.579 192.583V152.427C177.566 151.707 177.766 151.007 178.133 150.387C178.513 149.78 179.046 149.28 179.687 148.96C180.327 148.633 181.047 148.493 181.76 148.553C182.481 148.613 183.161 148.873 183.741 149.3L244.881 192.289C245.268 192.583 245.715 192.796 246.181 192.896C246.655 193.01 247.142 193.023 247.622 192.916C248.095 192.816 248.542 192.623 248.942 192.329C249.329 192.043 249.649 191.683 249.896 191.256L257.024 178.96C257.571 178.006 257.797 176.899 257.644 175.799C257.497 174.712 257.004 173.699 256.224 172.918L183.027 102.956C181.3 101.229 179.933 99.1754 178.986 96.9215C178.053 94.6677 177.566 92.2405 177.566 89.7933V58.7664C177.566 52.5383 173.152 37.9551 167.29 34.6277C166.53 34.2209 165.69 33.9742 164.823 33.9142C164.717 33.9075 164.603 33.9075 164.497 33.9075C164.39 33.9075 164.276 33.9075 164.17 33.9142C163.303 33.9742 162.463 34.2209 161.703 34.6277C155.841 37.9551 151.427 52.5383 151.427 58.7664V89.7933C151.427 92.2405 150.94 94.6677 150.007 96.9215C149.06 99.1754 147.693 101.229 145.966 102.956L72.7695 172.918C71.9893 173.699 71.4959 174.712 71.3492 175.799C71.1958 176.899 71.4225 178.006 71.9693 178.96L79.0976 191.256C79.3443 191.683 79.6644 192.043 80.0511 192.329C80.4512 192.623 80.898 192.816 81.3714 192.916C81.8515 193.023 82.3383 193.01 82.8117 192.896C83.2785 192.796 83.7253 192.583 84.112 192.289L145.252 149.3C145.832 148.873 146.513 148.613 147.233 148.553C147.946 148.493 148.666 148.633 149.307 148.96C149.947 149.28 150.48 149.78 150.86 150.387C151.227 151.007 151.427 151.707 151.414 152.427V192.583C151.414 197.651 150.1 202.612 147.586 207.013L136.377 226.597C134.056 230.658 130.702 234.039 126.661 236.386C122.621 238.74 118.033 239.98 113.365 240H77.2305C71.5759 240 66.5948 236.292 64.9678 230.878L0.546772 16.4903C-1.92044 8.27517 4.23426 0 12.8162 0H60.1734C65.8079 0 70.7891 3.68749 72.4227 9.08202L100.956 103.043L137.784 8.16848C139.698 3.24072 144.439 0 149.727 0H179.266C184.554 0 189.295 3.24072 191.209 8.16848L228.037 103.043L256.57 9.08202C258.204 3.68749 263.185 0 268.82 0H316.177C324.759 0 330.914 8.27517 328.446 16.4903Z" fill="#1273EB"/>
</g>
<defs>
<clipPath id="clip0_9821_1098">
<rect width="329" height="240" fill="white"/>
</clipPath>
</defs>
</svg>
