<svg width="18" height="18" viewBox="0 0 18 18" fill="none" xmlns="http://www.w3.org/2000/svg">
<path d="M14.9069 9.92059C14.7191 9.92059 14.5227 9.86082 14.3348 9.81813C13.9544 9.7343 13.5806 9.62301 13.2163 9.48512C12.8202 9.34101 12.3847 9.3485 11.9938 9.50613C11.6029 9.66377 11.2841 9.96041 11.0987 10.339L10.9108 10.7232C10.0792 10.2606 9.31495 9.68598 8.63956 9.0155C7.96908 8.3401 7.39447 7.57587 6.93183 6.74421L7.29045 6.50513C7.66903 6.31977 7.96567 6.00095 8.12331 5.61001C8.28094 5.21908 8.28843 4.78366 8.14432 4.38754C8.00874 4.02245 7.8975 3.64877 7.81131 3.26898C7.76862 3.08113 7.73446 2.88474 7.70885 2.68835C7.60516 2.0869 7.29013 1.54224 6.8205 1.15245C6.35087 0.762655 5.7575 0.553349 5.14725 0.562222H2.58565C2.21766 0.558766 1.85325 0.634641 1.51722 0.78468C1.18118 0.934719 0.881427 1.1554 0.638348 1.4317C0.39527 1.708 0.214578 2.03343 0.108574 2.38584C0.00256902 2.73824 -0.0262593 3.10935 0.024051 3.4739C0.478938 7.05108 2.11263 10.3747 4.66708 12.9199C7.22152 15.4651 10.5511 17.0867 14.1299 17.5285H14.4544C15.084 17.5295 15.692 17.2984 16.1621 16.8796C16.4323 16.638 16.648 16.3418 16.7952 16.0106C16.9424 15.6795 17.0177 15.3208 17.016 14.9584V12.3968C17.0055 11.8037 16.7895 11.2326 16.4049 10.781C16.0203 10.3294 15.4908 10.0253 14.9069 9.92059ZM15.3339 15.0438C15.3337 15.165 15.3077 15.2848 15.2577 15.3953C15.2076 15.5057 15.1346 15.6042 15.0436 15.6842C14.9484 15.767 14.8369 15.8288 14.7162 15.8656C14.5956 15.9024 14.4685 15.9133 14.3434 15.8977C11.1456 15.4876 8.17526 14.0247 5.90097 11.7396C3.62668 9.45446 2.17785 6.47724 1.78302 3.27752C1.76943 3.15244 1.78134 3.02591 1.81803 2.90556C1.85472 2.78522 1.91542 2.67357 1.99648 2.57735C2.0765 2.48626 2.17499 2.41327 2.28541 2.36321C2.39583 2.31315 2.51565 2.28718 2.63688 2.28703H5.19848C5.39704 2.28261 5.59094 2.34755 5.74678 2.47067C5.90263 2.59379 6.01069 2.76739 6.05235 2.96159C6.0865 3.19498 6.12919 3.42552 6.18043 3.65322C6.27906 4.10333 6.41034 4.54566 6.5732 4.97671L5.37779 5.53172C5.27558 5.57862 5.18364 5.64524 5.10725 5.72777C5.03086 5.81029 4.97152 5.90709 4.93265 6.01261C4.89377 6.11814 4.87612 6.2303 4.88071 6.34266C4.8853 6.45502 4.91204 6.56537 4.9594 6.66736C6.18828 9.29962 8.3042 11.4155 10.9365 12.6444C11.1443 12.7298 11.3775 12.7298 11.5854 12.6444C11.6919 12.6063 11.7897 12.5475 11.8733 12.4713C11.9568 12.395 12.0244 12.303 12.0721 12.2004L12.6015 11.005C13.0429 11.1629 13.4934 11.294 13.9506 11.3978C14.1783 11.449 14.4088 11.4917 14.6422 11.5259C14.8364 11.5675 15.01 11.6756 15.1332 11.8314C15.2563 11.9873 15.3212 12.1812 15.3168 12.3797L15.3339 15.0438Z" fill="#1273EB"/>
</svg>
