<svg width="18" height="17" viewBox="0 0 18 17" fill="none" xmlns="http://www.w3.org/2000/svg">
<path d="M14.9069 9.35864C14.7191 9.35864 14.5227 9.29887 14.3348 9.25618C13.9544 9.17235 13.5806 9.06106 13.2163 8.92317C12.8202 8.77906 12.3847 8.78655 11.9938 8.94418C11.6029 9.10182 11.2841 9.39846 11.0987 9.77704L10.9108 10.1613C10.0792 9.69863 9.31495 9.12403 8.63956 8.45354C7.96908 7.77815 7.39447 7.01392 6.93183 6.18226L7.29045 5.94318C7.66903 5.75782 7.96567 5.439 8.12331 5.04806C8.28094 4.65713 8.28843 4.22171 8.14432 3.82559C8.00874 3.4605 7.8975 3.08682 7.81131 2.70703C7.76862 2.51918 7.73446 2.32279 7.70885 2.1264C7.60516 1.52495 7.29013 0.980289 6.8205 0.590497C6.35087 0.200705 5.7575 -0.00860171 5.14725 0.000270934H2.58565C2.21766 -0.00318427 1.85325 0.0726902 1.51722 0.222729C1.18118 0.372768 0.881427 0.593448 0.638348 0.869747C0.39527 1.14605 0.214578 1.47148 0.108574 1.82388C0.00256902 2.17629 -0.0262593 2.5474 0.024051 2.91195C0.478938 6.48912 2.11263 9.8128 4.66708 12.358C7.22152 14.9031 10.5511 16.5247 14.1299 16.9666H14.4544C15.084 16.9675 15.692 16.7365 16.1621 16.3177C16.4323 16.076 16.648 15.7799 16.7952 15.4487C16.9424 15.1175 17.0177 14.7589 17.016 14.3965V11.8349C17.0055 11.2417 16.7895 10.6707 16.4049 10.2191C16.0203 9.76746 15.4908 9.46335 14.9069 9.35864ZM15.3339 14.4818C15.3337 14.6031 15.3077 14.7229 15.2577 14.8333C15.2076 14.9437 15.1346 15.0422 15.0436 15.1222C14.9484 15.2051 14.8369 15.2669 14.7162 15.3037C14.5956 15.3405 14.4685 15.3514 14.3434 15.3357C11.1456 14.9257 8.17526 13.4627 5.90097 11.1776C3.62668 8.89251 2.17785 5.91529 1.78302 2.71556C1.76943 2.59049 1.78134 2.46396 1.81803 2.34361C1.85472 2.22327 1.91542 2.11161 1.99648 2.01539C2.0765 1.92431 2.17499 1.85132 2.28541 1.80126C2.39583 1.7512 2.51565 1.72523 2.63688 1.72508H5.19848C5.39704 1.72066 5.59094 1.7856 5.74678 1.90872C5.90263 2.03184 6.01069 2.20544 6.05235 2.39963C6.0865 2.63302 6.12919 2.86357 6.18043 3.09127C6.27906 3.54138 6.41034 3.98371 6.5732 4.41476L5.37779 4.96977C5.27558 5.01667 5.18364 5.08329 5.10725 5.16582C5.03086 5.24834 4.97152 5.34514 4.93265 5.45066C4.89377 5.55619 4.87612 5.66835 4.88071 5.78071C4.8853 5.89307 4.91204 6.00341 4.9594 6.10541C6.18828 8.73767 8.3042 10.8536 10.9365 12.0825C11.1443 12.1679 11.3775 12.1679 11.5854 12.0825C11.6919 12.0444 11.7897 11.9855 11.8733 11.9093C11.9568 11.8331 12.0244 11.741 12.0721 11.6385L12.6015 10.4431C13.0429 10.6009 13.4934 10.7321 13.9506 10.8358C14.1783 10.8871 14.4088 10.9298 14.6422 10.9639C14.8364 11.0056 15.01 11.1136 15.1332 11.2695C15.2563 11.4253 15.3212 11.6192 15.3168 11.8178L15.3339 14.4818Z" fill="#1273EB"/>
</svg>
