<svg width="332" height="104" viewBox="0 0 332 104" fill="none" xmlns="http://www.w3.org/2000/svg">
<g clip-path="url(#clip0_9_118)">
<path d="M126.681 74.5991L108.915 73.1978C109.232 73.7318 109.077 74.6208 109.5 75.0653C109.709 75.2848 112.267 76.2497 113.102 76.8405C120.948 82.3858 118.672 94.9509 109.335 97.3414C96.138 100.721 88.8744 82.375 101.385 75.835C101.781 75.629 103.404 75.133 103.491 75.0165C103.629 74.8322 103.884 72.9133 103.749 72.7506L87.6168 71.4605C87.5328 74.6912 84.714 74.2386 85.3076 71.0892L54.8111 68.509L53.2662 68.6201L52.8352 70.4658C52.5696 70.8941 51.7321 70.8968 51.3391 70.6393L50.9217 68.3084L3.62934 64.2917C0.460974 63.6575 0.295644 60.4349 0.00292969 57.7842C0.943411 56.4724 2.97344 61.248 4.0657 61.0502L128.445 66.1727C133.982 66.4004 139.484 66.8042 145.043 66.8719C145.639 66.8801 146.845 67.0373 146.742 66.5901C145.791 62.511 146.382 61.0529 146.328 60.4485L115.183 55.8301C114.265 55.7786 109.703 54.2175 109.866 53.2363C110.05 52.1305 112.321 52.8542 113.002 52.8704C124.689 53.136 136.319 53.8976 148.038 54.2744C150.442 48.5177 155.28 43.7448 161.413 42.124L165.024 2.25517C165.511 -1.24386 166.075 -0.276272 166.422 2.48826C167.867 13.9963 168.262 25.9678 169.463 37.549C169.62 39.0695 169.78 40.6089 170.038 42.1159C176.269 43.8586 180.882 48.4065 183.41 54.2717L220.769 52.6265L221.339 53.0032C221.621 53.8407 220.463 54.353 219.796 54.6891C218.783 55.2013 217.547 55.4669 216.457 55.7922L184.89 60.3428C184.982 62.427 185.123 64.4923 184.668 66.5603L184.56 67.1077L185.037 67.1023L307.719 61.7332C311.546 61.5651 315.36 61.4513 319.173 61.267C321.661 61.145 324.995 61.3808 327.375 61.0556C328.784 60.8605 329.437 58.0742 330.874 57.5891L331.345 58.0119C331.131 60.584 330.822 63.6467 327.816 64.2999L280.519 68.3111C280.922 71.3955 278.098 71.7885 278.147 68.5334L246.133 71.0919C246.469 74.3443 244.019 74.5882 243.653 71.3115L227.431 72.7317L227.955 75.011C238.216 77.8081 239.625 92.3517 229.768 96.6855C216.39 102.564 207.072 83.5892 218.894 76.4611C220.563 75.4555 222.621 75.5829 222.29 73.1951L204.757 74.5964V88.5057C204.757 88.9529 203.589 89.5926 203.589 89.6739V94.4657H204.76C204.545 91.8936 204.898 90.8583 207.687 91.189C209.096 91.3543 209.327 92.1403 209.443 93.406C209.551 94.5714 209.63 98.8158 208.901 99.5449C208.05 100.396 205.201 100.334 204.808 98.9784C204.627 98.3578 204.99 96.9863 204.54 96.6747C203.811 96.6015 200.811 96.26 200.583 96.9565C200.45 97.5474 200.648 98.2141 200.545 98.7887C200.239 100.485 196.412 100.683 195.924 98.5123C195.704 97.5365 195.756 92.6634 196.238 91.9126C196.818 91.0128 198.932 90.9776 199.792 91.3706C200.873 91.8665 200.496 93.5198 200.548 94.4712H201.719V89.6793C201.719 89.5709 201.071 89.2728 200.914 89.0803C200.049 88.0206 200.99 85.9093 200.328 84.7574L190.257 75.8811L184.335 76.2686C184.031 76.3472 184.001 76.5559 183.952 76.8215C183.44 79.5888 184.982 81.9684 182.443 84.4294C180.093 86.7061 177.277 85.4404 174.371 85.9445L167.235 92.1321C166.858 92.8992 167.349 94.2733 167.086 95.0295C166.975 95.3493 166.479 95.3276 166.414 95.5715C166.186 96.447 166.587 98.1545 166.419 99.1492H167.119C166.411 97.1761 168.655 95.6339 170.054 97.0324C170.531 97.5067 170.512 101.03 170.404 101.849C170.141 103.83 166.17 103.22 167.121 100.55H164.449C164.167 102.177 164.36 103.166 162.321 103.003C160.359 102.849 160.619 99.5937 160.825 98.1111C161.188 95.4902 165.124 96.3657 164.319 99.1492H165.018V95.4089C165.018 95.371 164.482 95.4306 164.349 95.0349C164.145 94.4197 164.444 93.4168 164.311 92.7284C164.089 91.5603 158.253 87.3268 157.158 86.0909C154.014 85.2479 150.919 86.9554 148.534 83.9632C146.602 81.5429 147.957 79.3665 147.488 76.827C147.439 76.5613 147.406 76.3554 147.106 76.2741L141.189 75.8919L130.941 84.7059C130.665 85.7331 131.329 88.6114 130.405 89.2104C130.158 89.3703 129.722 89.2999 129.722 89.3324V94.4739H130.657C130.546 93.4629 130.695 91.6714 131.811 91.3028C133.072 90.8881 134.917 91.0236 135.383 92.433C135.679 93.3274 135.711 97.298 135.552 98.3171C135.27 100.09 132.939 100.594 131.6 99.7238C130.556 99.0435 130.613 97.6531 130.657 96.5771H126.683C126.873 98.8131 126.602 100.35 123.992 100.09C122.734 99.965 122.141 99.347 122.003 98.1003C121.894 97.1354 121.886 92.8965 122.184 92.1945C122.805 90.739 126.193 90.7743 126.635 92.3002C126.822 92.9425 126.61 93.7963 126.681 94.4739H127.852V89.682C127.852 89.5492 126.683 88.9611 126.683 88.747V74.6045L126.681 74.5991ZM138.601 75.5341L130.887 75.0653C130.947 75.5233 130.784 76.1223 130.884 76.5397C130.939 76.7728 134.448 78.6727 134.982 78.9762C135.901 78.0385 137.397 77.1712 138.259 76.2415C138.473 76.0112 138.687 75.9109 138.601 75.5341ZM200.548 75.0653C198.165 75.049 195.783 75.2929 193.42 75.5396C193.078 75.5748 192.734 75.3336 192.834 75.8811L196.452 78.9817C196.984 78.4667 200.32 76.9598 200.496 76.6562C200.691 76.3147 200.475 75.507 200.548 75.0653ZM130.887 82.5457C131.299 82.0931 133.576 80.6024 133.459 80.0956L130.887 78.5697V82.543V82.5457ZM200.548 82.5457V78.5724L197.976 80.0956C197.859 80.5862 200.079 82.2232 200.548 82.5457ZM158.939 85.8198C159.278 86.3565 160.782 87.9149 161.354 87.8797L164.078 86.3971C164.49 86.2264 164.072 85.8198 163.967 85.8198H158.942H158.939ZM172.263 85.8198H167.121C167.027 86.3917 169.851 87.9257 170.046 87.9284C170.404 87.7875 172.631 86.1478 172.263 85.8198ZM164.313 87.923L162.446 88.6277L163.967 90.4924C164.495 90.59 164.289 90.262 164.313 89.9124C164.362 89.2565 164.281 88.5789 164.313 87.923ZM168.989 88.6277L167.121 87.9257V90.4951C167.357 90.7607 169.227 88.9448 168.989 88.6304V88.6277Z" fill="#B0CFFB" fill-opacity="0.8"/>
</g>
<defs>
<clipPath id="clip0_9_118">
<rect width="331.342" height="103.014" fill="white"/>
</clipPath>
</defs>
</svg>
