<svg width="332" height="83" viewBox="0 0 332 83" fill="none" xmlns="http://www.w3.org/2000/svg">
<g clip-path="url(#clip0_244_111)">
<path d="M126.678 60.2778L108.912 59.1569C109.229 59.584 109.074 60.2952 109.497 60.6508C109.706 60.8264 112.264 61.5983 113.099 62.071C120.945 66.5073 118.669 76.5593 109.332 78.4717C96.1351 81.1755 88.8715 66.4986 101.382 61.2666C101.778 61.1018 103.401 60.705 103.488 60.6118C103.626 60.4643 103.881 58.9292 103.746 58.7991L87.6139 57.767C87.5298 60.3516 84.7111 59.9895 85.3047 57.47L54.8081 55.4058L53.2632 55.4947L52.8323 56.9713C52.5667 57.3138 51.7292 57.316 51.3362 57.11L50.9188 55.2453L3.62641 52.032C0.458045 51.5246 0.292715 48.9465 0 46.826C0.940482 45.7765 2.97051 49.597 4.06277 49.4387L128.442 53.5367C133.979 53.7189 139.481 54.0419 145.04 54.0961C145.636 54.1026 146.843 54.2284 146.74 53.8706C145.788 50.6074 146.379 49.4409 146.325 48.9574L115.181 45.2627C114.262 45.2215 109.7 43.9726 109.863 43.1876C110.047 42.303 112.318 42.8819 112.999 42.8949C124.686 43.1074 136.316 43.7167 148.035 44.0181C150.439 39.4127 155.277 35.5944 161.411 34.2978L165.021 2.40272C165.509 -0.396502 166.072 0.377566 166.419 2.58919C167.864 11.7956 168.259 21.3728 169.46 30.6378C169.617 31.8542 169.777 33.0857 170.035 34.2913C176.266 35.6855 180.879 39.3238 183.407 44.0159L220.767 42.6998L221.336 43.0012C221.618 43.6712 220.46 44.081 219.794 44.3498C218.78 44.7596 217.544 44.9721 216.454 45.2323L184.887 48.8728C184.979 50.5402 185.12 52.1924 184.665 53.8468L184.557 54.2848L185.034 54.2804L307.716 49.9851C311.543 49.8507 315.357 49.7596 319.17 49.6122C321.658 49.5146 324.992 49.7033 327.372 49.4431C328.781 49.287 329.434 47.058 330.871 46.6699L331.342 47.0081C331.128 49.0658 330.819 51.5159 327.813 52.0385L280.516 55.2475C280.919 57.715 278.095 58.0294 278.144 55.4253L246.13 57.4721C246.466 60.074 244.016 60.2692 243.65 57.6478L227.429 58.7839L227.952 60.6074C238.213 62.8451 239.622 74.4799 229.765 77.947C216.387 82.6499 207.069 67.47 218.891 61.7674C220.561 60.963 222.618 61.0649 222.287 59.1547L204.754 60.2757V71.4032C204.754 71.7609 203.586 72.2726 203.586 72.3377V76.1712H204.757C204.543 74.1135 204.895 73.2852 207.684 73.5498C209.093 73.682 209.324 74.3108 209.44 75.3234C209.549 76.2557 209.627 79.6512 208.898 80.2345C208.047 80.9153 205.198 80.8655 204.805 79.7813C204.624 79.2848 204.987 78.1877 204.537 77.9383C203.808 77.8798 200.808 77.6066 200.58 78.1638C200.447 78.6365 200.645 79.1699 200.542 79.6295C200.236 80.9869 196.409 81.1452 195.921 79.4084C195.701 78.6278 195.753 74.7293 196.235 74.1287C196.815 73.4088 198.929 73.3806 199.789 73.695C200.87 74.0918 200.493 75.4145 200.545 76.1755H201.716V72.342C201.716 72.2553 201.068 72.0168 200.911 71.8629C200.046 71.0151 200.987 69.326 200.325 68.4045L190.254 61.3034L184.332 61.6135C184.028 61.6764 183.998 61.8433 183.95 62.0558C183.437 64.2696 184.979 66.1733 182.44 68.1421C180.09 69.9635 177.274 68.9509 174.369 69.3542L167.232 74.3043C166.856 74.9179 167.346 76.0172 167.083 76.6222C166.972 76.878 166.476 76.8607 166.411 77.0558C166.183 77.7562 166.585 79.1222 166.416 79.9179H167.116C166.408 78.3394 168.652 77.1057 170.051 78.2245C170.528 78.604 170.509 81.4227 170.401 82.0775C170.138 83.6625 166.167 83.1746 167.118 81.0389H164.446C164.164 82.3399 164.357 83.1313 162.318 83.0012C160.356 82.8776 160.616 80.2735 160.822 79.0875C161.186 76.9908 165.121 77.6911 164.316 79.9179H165.015V76.9257C165.015 76.8954 164.479 76.9431 164.346 76.6265C164.143 76.1343 164.441 75.3321 164.308 74.7813C164.086 73.8468 158.25 70.46 157.155 69.4713C154.011 68.7969 150.916 70.1629 148.531 67.7692C146.599 65.8329 147.954 64.0918 147.485 62.0602C147.436 61.8477 147.404 61.6829 147.103 61.6178L141.186 61.3121L130.938 68.3633C130.662 69.1851 131.326 71.4877 130.402 71.9669C130.155 72.0948 129.719 72.0385 129.719 72.0645V76.1777H130.654C130.543 75.3689 130.692 73.9357 131.808 73.6408C133.069 73.3091 134.914 73.4175 135.381 74.545C135.676 75.2605 135.709 78.437 135.549 79.2523C135.267 80.6703 132.936 81.0736 131.597 80.3776C130.553 79.8334 130.61 78.721 130.654 77.8602H126.68C126.87 79.6491 126.599 80.8785 123.989 80.6703C122.732 80.5706 122.138 80.0762 122 79.0788C121.891 78.3069 121.883 74.9158 122.181 74.3542C122.802 73.1898 126.19 73.218 126.632 74.4387C126.819 74.9526 126.607 75.6356 126.678 76.1777H127.849V72.3442C127.849 72.238 126.68 71.7674 126.68 71.5962V60.2822L126.678 60.2778ZM138.598 61.0259L130.884 60.6508C130.944 61.0172 130.781 61.4964 130.881 61.8303C130.936 62.0168 134.446 63.5367 134.979 63.7796C135.898 63.0294 137.394 62.3355 138.256 61.5918C138.47 61.4075 138.684 61.3273 138.598 61.0259ZM200.545 60.6508C198.162 60.6378 195.78 60.8329 193.417 61.0302C193.075 61.0584 192.731 60.8654 192.831 61.3034L196.45 63.7839C196.981 63.372 200.317 62.1664 200.493 61.9236C200.688 61.6504 200.472 61.0042 200.545 60.6508ZM130.884 66.6352C131.296 66.2731 133.573 65.0805 133.456 64.6751L130.884 63.4543V66.633V66.6352ZM200.545 66.6352V63.4565L197.973 64.6751C197.856 65.0675 200.076 66.3772 200.545 66.6352ZM158.936 69.2544C159.275 69.6838 160.779 70.9305 161.351 70.9023L164.075 69.7163C164.487 69.5797 164.069 69.2544 163.964 69.2544H158.939H158.936ZM172.26 69.2544H167.118C167.024 69.7119 169.848 70.9392 170.043 70.9413C170.401 70.8286 172.629 69.5168 172.26 69.2544ZM164.311 70.937L162.443 71.5007L163.964 72.9925C164.492 73.0706 164.286 72.8082 164.311 72.5285C164.359 72.0038 164.278 71.4617 164.311 70.937ZM168.986 71.5007L167.118 70.9392V72.9947C167.354 73.2072 169.224 71.7544 168.986 71.5029V71.5007Z" fill="#B0CFFB" fill-opacity="0.8"/>
</g>
<defs>
<clipPath id="clip0_244_111">
<rect width="331.342" height="82.4111" fill="white"/>
</clipPath>
</defs>
</svg>
