<svg width="437" height="435" viewBox="0 0 437 435" fill="none" xmlns="http://www.w3.org/2000/svg">
<g filter="url(#filter0_d_245_403)">
<path d="M393.597 81.4414L379.805 91.2072L383.1 73.5452L371.144 71.6891L365.628 101.245L351.777 111.053L357.998 77.715L346.042 75.8587L337.598 121.092L321.411 132.554L331.658 77.66L319.702 75.8039L307.234 142.595L292.051 153.345L304.126 88.6521L298.636 87.8L295.76 83.7375L241.235 122.345L244.598 104.329L300.89 64.4706L294.005 54.7469L247.738 87.5068L251.323 68.3013L289.447 41.307L282.562 31.5833L254.464 51.479L257.532 35.0429L282.441 17.4056L275.556 7.68179L260.672 18.2205L263.727 1.85617L251.77 5.94392e-05L248.716 16.3614L238.496 1.92699L228.47 9.02559L245.576 33.1837L242.508 49.6197L223.213 22.3698L213.188 29.4683L239.368 66.4421L235.782 85.6507L204.009 40.7773L193.983 47.8759L232.642 102.473L229.279 120.488L191.834 67.6057L187.232 70.8645L182.237 70.089L170.161 134.783L159.731 120.054L172.2 53.2676L160.243 51.4115L149.995 106.304L138.877 90.6015L147.321 45.368L135.364 43.5119L129.143 76.8501L119.629 63.4132L125.146 33.8588L113.189 32.0027L109.893 49.6631L100.419 36.2839L90.3941 43.3825L99.8649 56.758L82.1153 54.0026L79.8951 65.8966L109.601 70.5081L119.115 83.945L85.6045 78.7428L83.3842 90.6368L128.851 97.6951L139.969 113.397L84.7895 104.833L82.5694 116.727L149.705 127.147L160.135 141.877L95.1021 131.781L94.0827 137.242L89.8962 140.207L127.341 193.089L109.231 190.278L70.5727 135.681L60.5474 142.779L92.3208 187.653L73.0118 184.655L46.8318 147.682L36.8065 154.78L56.1027 182.032L39.5807 179.467L22.475 155.309L12.4497 162.407L22.6703 176.842L6.22025 174.288L4.00003 186.182L20.4531 188.736L5.56933 199.275L12.4545 208.999L37.3635 191.362L53.8856 193.926L25.7851 213.823L32.6703 223.547L70.7941 196.553L90.1001 199.55L43.8353 232.309L50.7205 242.032L107.012 202.174L125.122 204.985L70.5976 243.592L73.7584 248.056L72.8309 253.025L137.862 263.122L122.679 273.873L55.5413 263.453L53.3211 275.347L108.501 283.912L92.3118 295.375L46.8444 288.32L44.6242 300.214L78.1335 305.414L64.282 315.222L34.5743 310.612L32.3541 322.506L50.1036 325.261L36.3133 335.025L43.1985 344.749L56.9906 334.984L53.6953 352.646L65.6516 354.502L71.1671 324.946L85.0187 315.138L78.7972 348.476L90.7534 350.332L99.197 305.099L115.384 293.637L105.137 348.531L117.093 350.387L129.561 283.596L144.744 272.846L132.669 337.539L138.159 338.391L141.035 342.453L195.56 303.846L192.197 321.862L135.907 361.719L142.792 371.443L189.059 338.683L185.474 357.888L147.348 384.884L154.233 394.607L182.332 374.712L179.263 391.148L154.354 408.785L161.24 418.509L176.123 407.97L173.067 424.336L185.023 426.192L188.077 409.831L198.298 424.265L208.323 417.166L191.217 393.008L194.286 376.572L213.58 403.822L223.606 396.724L197.426 359.75L201.011 340.541L232.785 385.415L242.81 378.316L204.151 323.719L207.514 305.704L244.959 358.586L249.561 355.328L254.556 356.103L266.632 291.409L277.062 306.138L264.594 372.924L276.55 374.78L286.798 319.888L297.916 335.591L289.475 380.823L301.431 382.679L307.652 349.341L317.166 362.777L311.65 392.332L323.606 394.188L326.904 376.529L336.376 389.907L346.401 382.808L336.929 369.431L354.679 372.186L356.899 360.292L327.193 355.681L317.679 342.244L351.189 347.446L353.41 335.552L307.943 328.494L296.825 312.792L352.004 321.356L354.225 309.462L287.089 299.042L276.659 284.312L341.692 294.408L342.711 288.947L346.898 285.982L309.453 233.1L327.563 235.911L366.221 290.508L376.246 283.409L344.473 238.536L363.782 241.534L389.963 278.509L399.989 271.411L380.692 244.159L397.215 246.724L414.32 270.882L424.345 263.783L414.125 249.349L430.575 251.903L432.795 240.009L416.345 237.455L431.229 226.916L424.344 217.192L399.435 234.83L382.913 232.265L411.011 212.369L404.126 202.645L366.003 229.64L346.696 226.643L392.961 193.884L386.076 184.16L329.786 224.017L311.676 221.206L366.201 182.599L363.04 178.135L363.968 173.166L298.936 163.069L314.119 152.319L381.257 162.738L383.477 150.844L328.298 142.279L344.486 130.816L389.954 137.872L392.174 125.978L358.665 120.777L372.516 110.969L402.224 115.58L404.444 103.686L386.695 100.93L400.485 91.1656L393.597 81.4414ZM246.377 200.282L261.477 202.626L248.985 211.472L247.586 211.256L247.327 212.646L241.898 216.49L245.626 221.755L245.366 223.15L246.769 223.368L255.467 235.653L240.567 233.34L239.759 232.198L238.582 233.031L232.112 232.027L230.91 238.463L229.733 239.296L230.542 240.438L227.737 255.463L219.158 243.346L219.418 241.951L218.015 241.733L214.287 236.467L208.858 240.311L207.462 240.094L207.201 241.485L194.533 250.454L197.3 235.632L198.476 234.8L197.668 233.66L198.87 227.221L192.397 226.216L191.59 225.076L190.415 225.908L175.315 223.564L187.808 214.718L189.206 214.934L189.465 213.544L194.894 209.701L191.166 204.435L191.426 203.04L190.023 202.822L181.325 190.538L196.225 192.851L197.033 193.992L198.21 193.159L204.68 194.163L205.882 187.727L207.059 186.894L206.25 185.752L209.055 170.727L217.634 182.844L217.374 184.24L218.777 184.458L222.505 189.723L227.934 185.879L229.33 186.096L229.592 184.705L242.259 175.736L239.492 190.558L238.317 191.39L239.124 192.53L237.922 198.97L244.395 199.974L245.202 201.114L246.377 200.282ZM253.67 180.519L256.437 165.697L274.323 153.032L267.438 143.309L259.577 148.874L261.356 139.342L249.4 137.486L245.401 158.912L232.734 167.882L238.094 139.165L289.139 103.022L277.872 163.383L253.67 180.519ZM220.776 166.024L212.196 153.907L216.158 132.686L204.201 130.83L202.46 140.157L196.943 132.365L186.918 139.464L199.32 156.979L196.515 172.004L179.894 148.53L191.2 87.9664L226.136 137.307L220.776 166.024ZM186.49 179.102L171.59 176.789L159.306 159.44L149.28 166.538L154.68 174.164L145.097 172.676L142.877 184.571L164.416 187.914L173.114 200.199L144.251 195.718L109.197 146.211L169.87 155.63L186.49 179.102ZM170.899 212.092L158.406 220.937L137.071 217.625L134.851 229.519L144.23 230.975L136.195 236.665L143.08 246.388L161.14 233.6L176.241 235.945L152.041 253.08L91.1615 243.63L142.032 207.61L170.899 212.092ZM183.124 245.67L180.357 260.492L162.471 273.156L169.356 282.88L177.217 277.314L175.437 286.847L187.394 288.703L191.393 267.277L204.06 258.307L198.7 287.024L147.657 323.166L158.924 262.805L183.124 245.67ZM216.018 260.165L224.598 272.282L220.636 293.503L232.593 295.359L234.334 286.032L239.851 293.824L249.876 286.725L237.474 269.21L240.278 254.185L256.899 277.659L245.594 338.223L210.658 288.882L216.018 260.165ZM250.304 247.087L265.204 249.4L277.488 266.749L287.514 259.651L282.114 252.025L291.696 253.512L293.917 241.618L272.378 238.275L263.68 225.99L292.543 230.471L327.597 279.978L266.923 270.559L250.304 247.087ZM265.895 214.097L278.388 205.252L299.725 208.562L301.945 196.668L292.566 195.212L300.601 189.523L293.716 179.799L275.656 192.587L260.555 190.243L284.755 173.108L345.634 182.557L294.763 218.577L265.895 214.097Z" fill="#00AEEF" fill-opacity="0.15" shape-rendering="crispEdges"/>
</g>
<defs>
<filter id="filter0_d_245_403" x="0" y="0" width="436.795" height="434.192" filterUnits="userSpaceOnUse" color-interpolation-filters="sRGB">
<feFlood flood-opacity="0" result="BackgroundImageFix"/>
<feColorMatrix in="SourceAlpha" type="matrix" values="0 0 0 0 0 0 0 0 0 0 0 0 0 0 0 0 0 0 127 0" result="hardAlpha"/>
<feOffset dy="4"/>
<feGaussianBlur stdDeviation="2"/>
<feComposite in2="hardAlpha" operator="out"/>
<feColorMatrix type="matrix" values="0 0 0 0 0 0 0 0 0 0 0 0 0 0 0 0 0 0 0.03 0"/>
<feBlend mode="normal" in2="BackgroundImageFix" result="effect1_dropShadow_245_403"/>
<feBlend mode="normal" in="SourceGraphic" in2="effect1_dropShadow_245_403" result="shape"/>
</filter>
</defs>
</svg>
