<svg width="1500" height="600" viewBox="0 0 1500 600" fill="none" xmlns="http://www.w3.org/2000/svg">
<mask id="path-1-inside-1_75_163" fill="white">
<path d="M1418 0C1463.29 0 1500 36.7127 1500 82V518C1500 563.287 1463.29 600 1418 600H82C36.7127 600 1.22425e-06 563.287 0 518V82C0 36.7127 36.7127 1.22411e-06 82 0H1418Z"/>
</mask>
<path d="M1500 82H1501H1500ZM1418 600V601V600ZM0 518H-1H0ZM82 0V-1V0ZM1418 0V1C1462.74 1 1499 37.2649 1499 82H1500H1501C1501 36.1604 1463.84 -1 1418 -1V0ZM1500 82H1499V518H1500H1501V82H1500ZM1500 518H1499C1499 562.735 1462.74 599 1418 599V600V601C1463.84 601 1501 563.84 1501 518H1500ZM1418 600V599H82V600V601H1418V600ZM82 600V599C37.2649 599 1 562.735 1 518H0H-1C-0.999999 563.84 36.1604 601 82 601V600ZM0 518H1V82H0H-1V518H0ZM0 82H1C1 37.2649 37.2649 1 82 1V0V-1C36.1604 -0.999999 -1 36.1604 -1 82H0ZM82 0V1H1418V0V-1H82V0Z" fill="#1273EB" mask="url(#path-1-inside-1_75_163)"/>
</svg>
