<svg width="275" height="80" viewBox="0 0 275 80" fill="none" xmlns="http://www.w3.org/2000/svg">
<path d="M68.1871 50.1708L51.18 0H43.0889L25.7645 49.9181L9.07468 0H0L20.6243 61.3866H30.048L46.9282 12.3215L63.6814 61.3866H72.9465L93.5708 0H85.1941L68.1871 50.1708Z" fill="#05060F"/>
<path d="M130.491 17.3307C127.033 15.3373 123.036 14.3564 118.499 14.3564C113.963 14.3564 110.029 15.369 106.476 17.394C102.923 19.419 100.132 22.2035 98.1014 25.7789C96.0712 29.3544 95.056 33.4361 95.056 38.0873C95.056 42.7386 96.1029 46.8203 98.1649 50.3958C100.259 53.9712 103.177 56.7873 106.984 58.8123C110.791 60.869 115.169 61.8815 120.149 61.8815C124.019 61.8815 127.541 61.2487 130.681 59.9514C133.822 58.6541 136.455 56.7873 138.548 54.3193L133.885 48.877C132.172 50.7438 130.205 52.1677 127.953 53.0853C125.701 54.0345 123.194 54.4775 120.435 54.4775C117.072 54.4775 114.122 53.813 111.552 52.4524C108.951 51.0919 106.952 49.225 105.525 46.7887C104.446 44.9851 103.812 43.0234 103.526 40.8718H141.435C141.499 40.4604 141.53 40.0175 141.562 39.5428C141.594 39.0682 141.594 38.6569 141.594 38.3088C141.594 33.4994 140.61 29.2911 138.644 25.7156C136.677 22.1085 133.949 19.3241 130.491 17.3307ZM110.664 23.4375C112.948 22.1085 115.581 21.4757 118.499 21.4757C121.418 21.4757 124.114 22.1402 126.367 23.4375C128.619 24.7664 130.396 26.6016 131.696 28.943C132.68 30.7149 133.251 32.6767 133.473 34.8283H103.463C103.716 32.7083 104.319 30.7466 105.271 28.9747C106.572 26.6016 108.348 24.7664 110.632 23.4375H110.664Z" fill="#05060F"/>
<path d="M154.466 61.3866H163.294V36.5539H194.223V29.0346H163.294V7.61409H198.034V0H154.466V61.3866Z" fill="#05060F"/>
<path d="M217.837 0H208.925V61.3866H217.837V0Z" fill="#05060F"/>
<path d="M266.562 14.8516L250.522 52.1709L234.324 14.8516H225.546L246.038 61.4373L244.554 64.7377C243.386 67.4351 242.123 69.3074 240.797 70.3864C239.439 71.4336 237.765 71.9731 235.713 71.9731C234.134 71.9731 232.65 71.6874 231.229 71.0845C229.84 70.4815 228.546 69.6565 227.377 68.5458L223.778 74.8926C225.293 76.2889 227.125 77.3679 229.209 78.0977C231.293 78.8276 233.471 79.2084 235.682 79.2084C238.081 79.2084 240.26 78.8276 242.249 78.0025C244.238 77.2092 246.07 75.8764 247.743 74.004C249.417 72.1317 250.932 69.5295 252.258 66.2609L274.771 14.915H266.53L266.562 14.8516Z" fill="#05060F"/>
</svg>
