<svg width="135" height="98" viewBox="0 0 135 98" fill="none" xmlns="http://www.w3.org/2000/svg">
<path d="M133.893 6.72232L107.632 94.118C106.968 96.3252 104.938 97.8366 102.633 97.8366H87.9022C85.9994 97.8284 84.1292 97.3228 82.482 96.3633C80.8347 95.4064 79.4674 94.0283 78.5214 92.3728L73.952 84.3892C72.9272 82.5952 72.3917 80.5727 72.3917 78.5069V62.1373C72.3862 61.8438 72.4678 61.5583 72.6173 61.3055C72.7722 61.0582 72.9897 60.8543 73.2507 60.7238C73.5116 60.5906 73.8052 60.5335 74.096 60.558C74.3896 60.5825 74.6669 60.6885 74.9034 60.8624L99.8273 78.3872C99.985 78.5069 100.167 78.5938 100.357 78.6346C100.55 78.6808 100.749 78.6863 100.945 78.6428C101.138 78.602 101.32 78.5232 101.483 78.4036C101.64 78.2867 101.771 78.1399 101.872 77.9659L104.777 72.9534C105 72.5647 105.093 72.1134 105.03 71.6649C104.97 71.2218 104.769 70.8087 104.451 70.4906L74.6125 41.9704C73.9085 41.2663 73.3512 40.4291 72.9652 39.5103C72.5847 38.5915 72.3862 37.6021 72.3862 36.6045V23.9563C72.3862 21.4174 70.5867 15.4725 68.1974 14.1161C67.8875 13.9502 67.545 13.8497 67.1916 13.8252C67.1481 13.8225 67.1019 13.8225 67.0584 13.8225C67.0149 13.8225 66.9687 13.8225 66.9252 13.8252C66.5718 13.8497 66.2293 13.9502 65.9194 14.1161C63.5301 15.4725 61.7306 21.4174 61.7306 23.9563V36.6045C61.7306 37.6021 61.5321 38.5915 61.1516 39.5103C60.7656 40.4291 60.2083 41.2663 59.5043 41.9704L29.6657 70.4906C29.3476 70.8087 29.1465 71.2218 29.0867 71.6649C29.0241 72.1134 29.1166 72.5647 29.3395 72.9534L32.2453 77.9659C32.3459 78.1399 32.4764 78.2867 32.634 78.4036C32.7971 78.5232 32.9792 78.602 33.1722 78.6428C33.368 78.6863 33.5664 78.6808 33.7594 78.6346C33.9497 78.5938 34.1318 78.5069 34.2895 78.3872L59.2134 60.8624C59.4499 60.6885 59.7272 60.5825 60.0208 60.558C60.3116 60.5335 60.6052 60.5906 60.8661 60.7238C61.1271 60.8543 61.3446 61.0582 61.4995 61.3055C61.649 61.5583 61.7306 61.8438 61.7251 62.1373V78.5069C61.7251 80.5727 61.1896 82.5952 60.1648 84.3892L55.5954 92.3728C54.6494 94.0283 53.2821 95.4064 51.6348 96.3633C49.9876 97.3228 48.1174 97.8284 46.2146 97.8366H31.4842C29.1791 97.8366 27.1485 96.3252 26.4853 94.118L0.223888 6.72232C-0.781878 3.37339 1.7271 0 5.22554 0H24.5308C26.8278 0 28.8583 1.50321 29.5243 3.70231L41.1558 42.0057L56.1689 3.3299C56.9491 1.32109 58.8818 0 61.0374 0H73.0794C75.235 0 77.1677 1.32109 77.9479 3.3299L92.961 42.0057L104.593 3.70231C105.258 1.50321 107.289 0 109.586 0H128.891C132.39 0 134.899 3.37339 133.893 6.72232Z" fill="#1273EB"/>
</svg>
