<svg width="18" height="16" viewBox="0 0 18 16" fill="none" xmlns="http://www.w3.org/2000/svg">
<path d="M14.97 0.12851H2.65503C1.95515 0.12851 1.28393 0.406537 0.789034 0.90143C0.294141 1.39632 0.0161133 2.06754 0.0161133 2.76743V9.80453C0.0161133 10.5044 0.294141 11.1756 0.789034 11.6705C1.28393 12.1654 1.95515 12.4435 2.65503 12.4435H7.93286V14.2027H4.41431C4.18101 14.2027 3.95727 14.2954 3.79231 14.4604C3.62734 14.6253 3.53467 14.8491 3.53467 15.0824C3.53467 15.3157 3.62734 15.5394 3.79231 15.7044C3.95727 15.8693 4.18101 15.962 4.41431 15.962H13.2107C13.444 15.962 13.6677 15.8693 13.8327 15.7044C13.9977 15.5394 14.0903 15.3157 14.0903 15.0824C14.0903 14.8491 13.9977 14.6253 13.8327 14.4604C13.6677 14.2954 13.444 14.2027 13.2107 14.2027H9.69214V12.4435H14.97C15.6699 12.4435 16.3411 12.1654 16.836 11.6705C17.3309 11.1756 17.6089 10.5044 17.6089 9.80453V2.76743C17.6089 2.06754 17.3309 1.39632 16.836 0.90143C16.3411 0.406537 15.6699 0.12851 14.97 0.12851ZM15.8496 9.80453C15.8496 10.0378 15.7569 10.2616 15.592 10.4265C15.427 10.5915 15.2033 10.6842 14.97 10.6842H2.65503C2.42173 10.6842 2.198 10.5915 2.03303 10.4265C1.86807 10.2616 1.77539 10.0378 1.77539 9.80453V2.76743C1.77539 2.53413 1.86807 2.31039 2.03303 2.14543C2.198 1.98046 2.42173 1.88779 2.65503 1.88779H14.97C15.2033 1.88779 15.427 1.98046 15.592 2.14543C15.7569 2.31039 15.8496 2.53413 15.8496 2.76743V9.80453Z" fill="#1273EB"/>
</svg>
